<?xml version="1.0" encoding="utf-8"?>
<!-- Generator: Adobe Illustrator 19.1.0, SVG Export Plug-In . SVG Version: 6.00 Build 0)  -->
<svg version="1.1" id="Layer_1" xmlns="http://www.w3.org/2000/svg" xmlns:xlink="http://www.w3.org/1999/xlink" x="0px" y="0px"
	 viewBox="0 0 200 50" style="enable-background:new 0 0 200 50;" xml:space="preserve">
<style type="text/css">
	.st0{fill:none;stroke:#D0D1D1;stroke-width:2.5;stroke-linecap:round;stroke-linejoin:round;stroke-miterlimit:10;}
</style>
<line class="st0" x1="29" y1="30.7" x2="29" y2="13.6"/>
<g>
	<path class="st0" d="M40.8,28.7c0,0-2.8-1.6-6.3-1c-3.5,0.6-5.6,3-5.6,3"/>
	<path class="st0" d="M39.6,33.3c0,0-1.8-2.3-4.9-3.1c-3.1-0.8-5.7,0.5-5.7,0.5"/>
</g>
<line class="st0" x1="17" y1="13.2" x2="10.2" y2="26.5"/>
<g>
	<path class="st0" d="M21.5,30.4c0,0-1.8-2.7-5.1-3.7c-3.4-1.1-6.3,0.1-6.3,0.1"/>
	<path class="st0" d="M18.3,33.9c0,0-0.5-2.9-2.9-5s-5.3-2.2-5.3-2.2"/>
</g>
<g>
	<line class="st0" x1="74" y1="29.6" x2="78.4" y2="13.2"/>
	<g>
		<path class="st0" d="M85.9,30.8c0,0-2.3-2.2-5.8-2.6c-3.5-0.3-6.2,1.4-6.2,1.4"/>
		<path class="st0" d="M83.5,34.9c0,0-1.1-2.7-3.9-4.2c-2.8-1.6-5.7-1-5.7-1"/>
	</g>
</g>
<g>
	<line class="st0" x1="68.9" y1="12.9" x2="65.8" y2="27.5"/>
	<g>
		<path class="st0" d="M77.7,28.3c0,0-2.4-2.1-5.9-2.3s-6.1,1.7-6.1,1.7"/>
		<path class="st0" d="M75.5,32.6c0,0-1.2-2.6-4.1-4c-2.9-1.4-5.7-0.8-5.7-0.8"/>
	</g>
</g>
<g>
	<line class="st0" x1="122" y1="13.8" x2="118.4" y2="28.3"/>
	<g>
		<path class="st0" d="M130,32.4c0,0-1.9-2.6-5.3-3.5c-3.4-0.9-6.3,0.4-6.3,0.4"/>
		<path class="st0" d="M127,36.1c0,0-0.6-2.8-3.2-4.8c-2.5-2-5.4-2-5.4-2"/>
	</g>
</g>
<g>
	<line class="st0" x1="121.4" y1="29.6" x2="125.8" y2="13.2"/>
	<g>
		<path class="st0" d="M133.4,30.8c0,0-2.3-2.2-5.8-2.6c-3.5-0.3-6.2,1.4-6.2,1.4"/>
		<path class="st0" d="M131,34.9c0,0-1.1-2.7-3.9-4.2c-2.8-1.6-5.7-1-5.7-1"/>
	</g>
</g>
<line class="st0" x1="169.1" y1="12.9" x2="169.1" y2="30.1"/>
<line class="st0" x1="175.8" y1="30.1" x2="175.8" y2="13.1"/>
<path class="st0" d="M187.6,28.2c0,0-2.8-1.6-6.3-1c-3.5,0.6-5.6,3-5.6,3"/>
<path class="st0" d="M186.4,32.8c0,0-1.8-2.3-4.9-3.1c-3.1-0.8-5.7,0.5-5.7,0.5"/>
<path class="st0" d="M169.1,30.1c0,0-1.3-1-3.1-1s-3.1,1-3.1,1"/>
</svg>
