<?xml version="1.0" encoding="utf-8"?>
<!-- Generator: Adobe Illustrator 19.1.0, SVG Export Plug-In . SVG Version: 6.00 Build 0)  -->
<svg version="1.1" id="Layer_1" xmlns="http://www.w3.org/2000/svg" xmlns:xlink="http://www.w3.org/1999/xlink" x="0px" y="0px"
	 viewBox="0 0 450 150" style="enable-background:new 0 0 450 150;" xml:space="preserve">
<style type="text/css">
	.st0{fill:#FFFFFF;stroke:#D0D1D1;stroke-width:2.5;stroke-linecap:round;stroke-linejoin:round;stroke-miterlimit:10;}
	.st1{fill:#D0D1D1;}
	.st2{fill:none;stroke:#D0D1D1;stroke-width:2.5;stroke-linecap:round;stroke-linejoin:round;stroke-miterlimit:10;}
</style>
<path class="st0" d="M437.7,91.5h-8.2v-0.1c0-5.5-4.4-10.1-9.9-10.2v-7.8c0-2.2,1.8-4,4-4h0.1c2.2,0,4,1.8,4,4v4.5l4.8-4.8
	c1.5-1.6,4.1-1.6,5.6,0L438,73c1.6,1.6,1.6,4.1,0,5.6l-4.8,4.8h4.5c2.2,0,4,1.8,4,4v0.1C441.6,89.7,439.9,91.5,437.7,91.5z"/>
<path class="st0" d="M411.3,111.4l-1.5-3.4l-2.8-6.2h11.1l-2.8,6.2l-1.5,3.4C413.3,112.5,411.8,112.5,411.3,111.4z"/>
<path class="st0" d="M395.8,101.8h23.4c5.6,0,10.2-4.6,10.2-10.2v-0.2c0-5.5-4.4-10.1-9.9-10.2c-0.1,0-0.2,0-0.3,0l-74.8,0
	c0-4.8-1.9-9.1-5.1-12.2c-3.1-3.1-7.5-5.1-12.3-5.1h0c-9.6,0-17.3,7.8-17.3,17.3"/>
<circle class="st1" cx="417.4" cy="91.5" r="2.9"/>
<line class="st2" x1="345.8" y1="89.1" x2="372.2" y2="89.1"/>
<path class="st0" d="M338.3,81.1c0-6.2-5.1-11.3-11.3-11.3h0c-6.2,0-11.3,5.1-11.3,11.3"/>
<path class="st2" d="M370.1,109.5c6.8-0.8,12.9-4,17.4-8.7c0,0,0,0,0,0"/>
<path class="st0" d="M277,65.5l-3.4,1.5l-6.2,2.8V58.7l6.2,2.8L277,63C278.1,63.5,278.1,65,277,65.5z"/>
<path class="st0" d="M257.1,39.2v8.2H257c-5.5,0-10.1,4.4-10.2,9.9H239c-2.2,0-4-1.8-4-4v-0.1c0-2.2,1.8-4,4-4h4.5l-4.8-4.8
	c-1.6-1.5-1.6-4.1,0-5.6l0.1-0.1c1.6-1.6,4.1-1.6,5.6,0l4.8,4.8v-4.5c0-2.2,1.8-4,4-4h0.1C255.3,35.2,257.1,37,257.1,39.2z"/>
<path class="st0" d="M277.2,79.3c0,5.5-4.4,10-9.9,10c-0.1,0-0.5,0-0.9,0c0.6-2.6,1-5.4,1-8.2V69.4
	C272.8,69.4,277.2,73.8,277.2,79.3z"/>
<path class="st0" d="M175.5,81c0-9.6,7.8-17.3,17.3-17.3h0c4.8,0,9.1,1.9,12.3,5.1c3.1,3.1,5.1,7.5,5.1,12.2h26.4
	c5.6,0,10.2-4.6,10.2-10.2h0V57.6c0-0.1,0-0.2,0-0.3c0.1-5.5,4.7-9.9,10.2-9.9h0.2c5.6,0,10.2,4.6,10.2,10.2V81c0,2.8-0.3,5.6-1,8.2
	c-0.3,1.1-0.6,2.2-0.9,3.3c-4.7,13.5-17.6,23.3-32.8,23.3c-9.6,0-18.3-3.9-24.6-10.2c-6.3-6.3-10.2-15-10.2-24.6v0
	c0-1.4-0.6-2.7-1.5-3.6c-0.9-0.9-2.2-1.5-3.6-1.5c-2.8,0-5.1,2.3-5.1,5.1"/>
<line class="st2" x1="211.6" y1="89" x2="238" y2="89"/>
<path class="st2" d="M204.1,81c0-6.2-5.1-11.3-11.3-11.3h0c-6.2,0-11.3,5.1-11.3,11.3"/>
<path class="st2" d="M211.6,88.9c3.2,8.5,11.4,14.6,21,14.6h0c12.4,0,22.5-10.1,22.5-22.5"/>
<path class="st2" d="M236,109.4c14.2-1.6,25.3-13.7,25.3-28.3"/>
<path class="st2" d="M204.1,81c0,14.6,11,26.7,25.2,28.3"/>
<line class="st2" x1="255.2" y1="59.4" x2="259.5" y2="59.4"/>
<path class="st0" d="M126,65.5l-3.4,1.5l-6.2,2.8V58.7l6.2,2.8L126,63C127.1,63.5,127.1,65,126,65.5z"/>
<path class="st0" d="M106.1,39.2v8.2H106c-5.5,0-10.1,4.4-10.2,9.9H88c-2.2,0-4-1.8-4-4v-0.1c0-2.2,1.8-4,4-4h4.5l-4.8-4.8
	c-1.6-1.5-1.6-4.1,0-5.6l0.1-0.1c1.6-1.6,4.1-1.6,5.6,0l4.8,4.8v-4.5c0-2.2,1.8-4,4-4h0.1C104.3,35.2,106.1,37,106.1,39.2z"/>
<path class="st0" d="M126.2,79.3c0,5.5-4.4,10-9.9,10c-0.1,0-0.5,0-0.9,0c0.6-2.6,1-5.4,1-8.2V69.4
	C121.8,69.4,126.2,73.8,126.2,79.3z"/>
<path class="st0" d="M24.5,81c0-9.6,7.8-17.3,17.3-17.3h0c4.8,0,9.1,1.9,12.3,5.1c3.1,3.1,5.1,7.5,5.1,12.2h26.4
	c5.6,0,10.2-4.6,10.2-10.2h0V57.6c0-0.1,0-0.2,0-0.3c0.1-5.5,4.7-9.9,10.2-9.9h0.2c5.6,0,10.2,4.6,10.2,10.2V81c0,2.8-0.3,5.6-1,8.2
	c-0.3,1.1-0.6,2.2-0.9,3.3c-4.7,13.5-17.6,23.3-32.8,23.3c-9.6,0-18.3-3.9-24.6-10.2C50.8,99.3,47,90.6,47,81v0
	c0-1.4-0.6-2.7-1.5-3.6c-0.9-0.9-2.2-1.5-3.6-1.5c-2.8,0-5.1,2.3-5.1,5.1"/>
<circle class="st1" cx="106.1" cy="59.4" r="2.9"/>
<line class="st2" x1="60.6" y1="89" x2="87" y2="89"/>
<path class="st2" d="M53.1,81c0-6.2-5.1-11.3-11.3-11.3h0c-6.2,0-11.3,5.1-11.3,11.3"/>
<path class="st2" d="M60.6,88.9c3.2,8.5,11.4,14.6,21,14.6h0c12.4,0,22.5-10.1,22.5-22.5"/>
<path class="st2" d="M85,109.4c14.2-1.6,25.3-13.7,25.3-28.3"/>
<path class="st2" d="M53.1,81c0,14.6,11,26.7,25.2,28.3"/>
<path class="st0" d="M321.9,81.1c0-2.8,2.3-5.1,5.1-5.1c1.4,0,2.7,0.6,3.6,1.5c0.9,0.9,1.5,2.2,1.5,3.6v0c0,9.6,3.9,18.3,10.2,24.6
	c6.3,6.3,15,10.2,24.6,10.2c10.1,0,19.2-4.3,25.5-11.2"/>
<path class="st0" d="M387.6,100.8c0,0.3,0,0.7,0,0.9c0,5.5,4.5,9.9,10,9.9c5.2,0,9.5-4,9.9-9c0-0.3,0-0.5,0-0.8H407h-11.3
	C392.9,101.8,390.2,101.4,387.6,100.8"/>
<path class="st2" d="M345.8,89.1c3.2,8.5,11.4,14.6,21,14.6h0c12.4,0,22.5-10.1,22.5-22.5"/>
<path class="st2" d="M338.3,81.2c0,14.6,11,26.7,25.2,28.3"/>
<path class="st2" d="M370.1,109.5c6.8-0.8,12.9-4,17.4-8.7c0,0,0,0,0,0"/>
</svg>
