<?xml version="1.0" encoding="utf-8"?>
<!-- Generator: Adobe Illustrator 19.1.0, SVG Export Plug-In . SVG Version: 6.00 Build 0)  -->
<svg version="1.1" id="Layer_1" xmlns="http://www.w3.org/2000/svg" xmlns:xlink="http://www.w3.org/1999/xlink" x="0px" y="0px"
	 viewBox="451 249 1514 296" style="enable-background:new 451 249 1514 296;" xml:space="preserve">
<style type="text/css">
	.st0{fill:none;stroke:#2dc3e8;stroke-width:2.5;stroke-linecap:round;stroke-linejoin:round;stroke-miterlimit:10;}
	.st1{opacity:0.5;}
</style>
<line class="st0" x1="476.3" y1="491.9" x2="1371.1" y2="491.9"/>
<g>
	<polygon class="st0" points="891.3,438.5 897.2,457.1 903.1,475.8 891.3,475.8 879.5,475.8 885.4,457.1 	"/>
	<line class="st0" x1="891.3" y1="438.5" x2="891.3" y2="491.9"/>
	<line class="st0" x1="891.3" y1="475.8" x2="900.2" y2="466.8"/>
	<line class="st0" x1="891.3" y1="459.3" x2="896.3" y2="454.3"/>
	<line class="st0" x1="891.3" y1="467.7" x2="898.3" y2="460.6"/>
	<line class="st0" x1="891.3" y1="475.8" x2="882.3" y2="466.8"/>
	<line class="st0" x1="891.3" y1="459.3" x2="886.3" y2="454.3"/>
	<line class="st0" x1="891.3" y1="467.7" x2="884.3" y2="460.6"/>
</g>
<g>
	<line class="st0" x1="606.5" y1="443.2" x2="606.5" y2="491.9"/>
	<line class="st0" x1="606.5" y1="470.7" x2="615.5" y2="461.6"/>
	<line class="st0" x1="606.5" y1="479.4" x2="618" y2="467.9"/>
	<line class="st0" x1="606.5" y1="479.4" x2="595" y2="467.9"/>
	<line class="st0" x1="606.5" y1="454" x2="611.5" y2="449"/>
	<line class="st0" x1="606.5" y1="462.5" x2="613.5" y2="455.4"/>
	<line class="st0" x1="606.5" y1="470.7" x2="597.5" y2="461.6"/>
	<line class="st0" x1="606.5" y1="454" x2="601.5" y2="449"/>
	<line class="st0" x1="606.5" y1="462.5" x2="599.5" y2="455.4"/>
</g>
<g>
	<polygon class="st0" points="846.5,448.7 852,465.9 857.4,483.1 846.5,483.1 835.7,483.1 841.1,465.9 	"/>
	<line class="st0" x1="846.5" y1="448.7" x2="846.5" y2="491.9"/>
</g>
<g>
	<rect x="501.5" y="462.7" class="st0" width="24.1" height="29.2"/>
	<rect x="525.7" y="462.7" class="st0" width="44.8" height="29.2"/>
	<line class="st0" x1="498.8" y1="470" x2="573.2" y2="470"/>
	<line class="st0" x1="498.8" y1="462.7" x2="501.5" y2="462.7"/>
	<line class="st0" x1="498.8" y1="491.9" x2="501.5" y2="491.9"/>
	<line class="st0" x1="573.2" y1="477.3" x2="554.5" y2="477.3"/>
	<line class="st0" x1="541.7" y1="477.3" x2="498.8" y2="477.3"/>
	<line class="st0" x1="573.2" y1="484.6" x2="554.5" y2="484.6"/>
	<line class="st0" x1="541.7" y1="484.6" x2="498.8" y2="484.6"/>
	<rect x="541.7" y="473.6" class="st0" width="12.8" height="18.3"/>
	<line class="st0" x1="515.3" y1="448.9" x2="501.5" y2="462.7"/>
	<line class="st0" x1="525.7" y1="462.7" x2="550.4" y2="438"/>
	<line class="st0" x1="570.5" y1="462.7" x2="545.8" y2="438"/>
	<line class="st0" x1="546.9" y1="441.4" x2="522.7" y2="441.4"/>
	<polyline class="st0" points="515.3,457.7 522.7,450.3 522.7,450.3 522.7,436.5 515.3,436.5 515.3,457.7 	"/>
	<g class="st1">
		<path class="st0" d="M519,429.1L519,429.1c0-4,3.2-7.1,7.1-7.1h12.1"/>
		<path class="st0" d="M532.1,400.6L532.1,400.6L532.1,400.6c0,3.7-2.7,6.7-6.3,7.1c-0.3,0-0.5,0-0.8,0"/>
		<path class="st0" d="M504.1,414.9h34c1.9,0,3.5,1.6,3.5,3.5v0.1c0,1.9-1.6,3.5-3.5,3.5h-12"/>
		<path class="st0" d="M538.1,414.9h-34c-2,0-3.5-1.6-3.5-3.5v-0.1c0-1.8,1.3-3.3,3-3.5c0.2,0,0.3,0,0.5,0H525"/>
	</g>
</g>
<g>
	<line class="st0" x1="1032.3" y1="443.4" x2="1032.3" y2="492"/>
	<line class="st0" x1="1032.3" y1="470.8" x2="1041.4" y2="461.8"/>
	<line class="st0" x1="1032.3" y1="479.6" x2="1043.9" y2="468"/>
	<line class="st0" x1="1032.3" y1="479.6" x2="1020.8" y2="468"/>
	<line class="st0" x1="1032.3" y1="454.2" x2="1037.4" y2="449.2"/>
	<line class="st0" x1="1032.3" y1="462.7" x2="1039.4" y2="455.5"/>
	<line class="st0" x1="1032.3" y1="470.8" x2="1023.3" y2="461.8"/>
	<line class="st0" x1="1032.3" y1="454.2" x2="1027.3" y2="449.2"/>
	<line class="st0" x1="1032.3" y1="462.7" x2="1025.3" y2="455.5"/>
</g>
<g>
	<polyline class="st0" points="1280.2,487.3 1270.5,487.3 1270.5,479 1276.1,479 1285,479 1294.2,479 1302.9,479 1302.9,487.3 
		1289.7,487.3 	"/>
	<path class="st0" d="M1333.5,480.8v-2.3c0-2.4-1.9-4.3-4.3-4.3h-6.8h-8.1h-11.4h0v4.7v8.4h11.5h4.5"/>
	<line class="st0" x1="1328.3" y1="487.3" x2="1333.5" y2="487.3"/>
	<circle class="st0" cx="1285" cy="487.3" r="4.7"/>
	<path class="st0" d="M1304.8,465.2h8.7c0.8,0,1.5,0.2,2.2,0.5c0.8,0.4,1.4,1,1.9,1.7l4.9,6.9h-19.5c0,0,0,0,0,0l0-7.2
		C1302.9,466,1303.7,465.2,1304.8,465.2z"/>
	<line class="st0" x1="1314.4" y1="465.3" x2="1314.4" y2="487.3"/>
	<path class="st0" d="M1318.9,487.3h-4.5v-6.5h18.6c0.2,0,0.3,0,0.5,0c1.4,0.2,2.5,1.5,2.5,3v3.5h-2.5h-5.1"/>
	<circle class="st0" cx="1323.6" cy="487.3" r="4.7"/>
	<line class="st0" x1="1302.9" y1="474.3" x2="1270.5" y2="474.3"/>
	<line class="st0" x1="1302.9" y1="469.7" x2="1270.5" y2="469.7"/>
	<line class="st0" x1="1294.2" y1="469.7" x2="1294.2" y2="479"/>
	<line class="st0" x1="1285" y1="469.7" x2="1285" y2="479"/>
	<line class="st0" x1="1276.1" y1="469.7" x2="1276.1" y2="479"/>
</g>
<g>
	<path class="st0" d="M978.4,450.2L978.4,450.2l0,3.8c0,1.5-1.2,2.6-2.6,2.6H966c-1.5,0-2.6-1.2-2.6-2.6v-3.8h0"/>
	<line class="st0" x1="973.3" y1="453.4" x2="973.3" y2="460.9"/>
	<line class="st0" x1="968.5" y1="453.4" x2="968.5" y2="460.9"/>
	<path class="st0" d="M969.8,466.7h6.7v-5.8h-12.4v0.1C964.1,464.2,966.6,466.7,969.8,466.7z"/>
	<rect x="976.5" y="470.4" class="st0" width="24.5" height="11.4"/>
	<line class="st0" x1="976.5" y1="466.7" x2="976.5" y2="470.4"/>
	<line class="st0" x1="976.5" y1="460.9" x2="982.8" y2="470.4"/>
	<path class="st0" d="M976.5,466.7c0,0-4.9,4.7-4.9,10c0,5.3,3.6,5.1,4.9,5.1"/>
	<path class="st0" d="M1001,470.4c0,0-4.9,1-4.9,6.3c0,5.3,3.6,5.1,4.9,5.1"/>
	<line class="st0" x1="976.5" y1="481.8" x2="976.5" y2="492"/>
	<line class="st0" x1="982.8" y1="481.8" x2="982.8" y2="492"/>
	<line class="st0" x1="1001" y1="481.8" x2="1001" y2="492"/>
	<line class="st0" x1="995.2" y1="481.8" x2="995.2" y2="492"/>
	<line class="st0" x1="1001" y1="470.4" x2="1003.5" y2="467.8"/>
</g>
</svg>
