<?xml version="1.0" standalone="no"?>
<!DOCTYPE svg PUBLIC "-//W3C//DTD SVG 1.1//EN" "http://www.w3.org/Graphics/SVG/1.1/DTD/svg11.dtd" >
<svg xmlns="http://www.w3.org/2000/svg">
<metadata></metadata>
<defs>
<font id="solo_sanslight" horiz-adv-x="1187" >
<font-face units-per-em="2048" ascent="1655" descent="-393" />
<missing-glyph horiz-adv-x="552" />
<glyph horiz-adv-x="2048" />
<glyph horiz-adv-x="2048" />
<glyph unicode="&#xd;" horiz-adv-x="2048" />
<glyph unicode=" "  horiz-adv-x="552" />
<glyph unicode="&#x09;" horiz-adv-x="552" />
<glyph unicode="&#xa0;" horiz-adv-x="552" />
<glyph unicode="!" horiz-adv-x="548" d="M203 31v166h143v-166h-143zM205 1333h139q-27 -293 -51 -891h-37q-24 446 -51 891z" />
<glyph unicode="&#x22;" horiz-adv-x="794" d="M133 1298v35h146q4 -24 -8 -113.5t-30 -202t-20 -126.5h-31zM518 1298v35h144q4 -24 -8 -113.5t-30 -202t-20 -126.5h-29z" />
<glyph unicode="#" horiz-adv-x="1296" d="M109 418v51h249l76 426h-241v51h249l70 387h59l-67 -387h383l69 387h60l-70 -387h242v-51h-250l-76 -426h242v-51h-250l-70 -387h-59l70 387h-385l-68 -387h-59l67 387h-241zM420 469h383l76 426h-385z" />
<glyph unicode="$" d="M102 242l97 61q120 -173 385 -205v551q-49 11 -87.5 21t-86 26.5t-82.5 35t-71 46.5t-58.5 60.5t-37 76.5t-14.5 95q0 88 37.5 156t102 108t139 61t158.5 25v141h49v-141q262 -30 405 -203l-84 -57q-112 125 -321 164v-504q51 -13 88.5 -23.5t87 -28.5t85 -37t72.5 -47.5 t60 -61.5t38 -78t15 -97q0 -73 -25.5 -134.5t-68 -103.5t-100.5 -73t-120.5 -47.5t-131.5 -22.5v-174h-49v174q-151 8 -278 65.5t-204 170.5zM266 1028q0 -49 20 -88.5t42.5 -62.5t73 -46t75.5 -30.5t86 -24.5l21 -6v496q-48 -2 -91 -9.5t-85.5 -25t-73 -43.5t-49.5 -67 t-19 -93zM633 100q66 5 122 22t103.5 48t75 83t27.5 120q0 142 -149 210q-54 25 -179 56v-539z" />
<glyph unicode="%" horiz-adv-x="1560" d="M102 1049q0 129 81 216t210 87t210 -87t81 -216q0 -132 -80.5 -220t-210.5 -88t-210.5 88t-80.5 220zM166 1049q0 -104 62.5 -173t164.5 -69t163.5 69.5t61.5 172.5q0 100 -63 168.5t-162 68.5q-101 0 -164 -67.5t-63 -169.5zM406 31l675 1302h74l-678 -1302h-71z M877 317q0 128 81.5 216t208.5 88q130 0 210.5 -86.5t80.5 -217.5t-80.5 -218t-210.5 -87q-128 0 -209 87.5t-81 217.5zM942 317q0 -101 62.5 -171t162.5 -70q101 0 164.5 69.5t63.5 171.5t-63.5 171t-164.5 69q-99 0 -162 -69.5t-63 -170.5z" />
<glyph unicode="&#x26;" horiz-adv-x="1376" d="M100 360q0 72 27.5 132t78.5 104.5t104 75.5t124 61q-45 49 -66.5 75t-53.5 72t-46 90.5t-14 92.5q0 142 97.5 218.5t244.5 76.5q89 0 164 -29.5t124.5 -95t49.5 -156.5q0 -46 -14 -87.5t-40.5 -75.5t-56.5 -62.5t-72 -54.5t-76.5 -44t-78.5 -38l389 -393 q102 146 143 274l103 -27q-56 -169 -178 -319l217 -219h-150l-145 143q-203 -168 -430 -168q-84 0 -161.5 21.5t-142 63.5t-103 111.5t-38.5 157.5zM225 381q0 -91 51 -156t126.5 -94t164.5 -29q176 0 340 144l-424 432q-55 -24 -96 -49t-80.5 -60.5t-60.5 -83t-21 -104.5z M362 1065q0 -41 13.5 -79.5t42.5 -77t50 -61.5t61 -63l12 -12q50 23 78.5 37.5t75 44.5t71.5 57t45 68.5t20 87.5q0 97 -68 151t-167 54q-98 0 -166 -55.5t-68 -151.5z" />
<glyph unicode="'" horiz-adv-x="407" d="M133 1298v35h143q4 -22 -8 -110.5t-31 -207t-20 -124.5h-29z" />
<glyph unicode="(" horiz-adv-x="591" d="M117 621q0 233 82.5 448.5t238.5 384.5l68 -57q-143 -157 -216 -357t-73 -419t73 -419.5t216 -359.5l-68 -55q-157 171 -239 385t-82 449z" />
<glyph unicode=")" horiz-adv-x="591" d="M84 -158q144 161 217.5 360t73.5 419q0 219 -73.5 419t-217.5 357l70 57q155 -172 238 -386.5t83 -446.5q0 -233 -83 -449t-240 -385z" />
<glyph unicode="*" horiz-adv-x="884" d="M131 889q104 57 266 115l27 24l-6 2l16 6l2 2l6 41q-32 192 -32 293h63q0 -80 -31 -293l7 -30l6 4l-2 -19l36 -30q167 -61 263 -115l-31 -55q-88 51 -232 170l-34 12v-6l-15 10l-43 -16q-155 -125 -233 -170zM131 1174l33 55q25 -14 48 -29t53.5 -38t41.5 -31.5t51 -41 t43 -34.5q-184 70 -270 119zM410 690q0 101 32 293q31 -190 31 -293h-63zM485 1055q6 4 37 29.5t40.5 33t36 28t42 31t38 25.5t42.5 27l31 -55q-96 -53 -267 -119z" />
<glyph unicode="+" d="M135 575v95h408v409h96v-409h410v-95h-410v-409h-96v409h-408z" />
<glyph unicode="," horiz-adv-x="514" d="M178 31v155h158v-170q0 -159 -129 -282l-23 22q99 92 99 201v74h-105z" />
<glyph unicode="-" horiz-adv-x="804" d="M158 526v99h489v-99h-489z" />
<glyph unicode="." horiz-adv-x="514" d="M178 31v155h158v-155h-158z" />
<glyph unicode="/" horiz-adv-x="722" d="M106 -190l435 1622h80l-435 -1622h-80z" />
<glyph unicode="0" d="M127 682q0 99 12 188.5t44.5 181t83 157.5t134.5 107.5t193 41.5t193 -41.5t134.5 -107.5t83 -157.5t44.5 -181t12 -188.5t-12 -189t-44.5 -181t-83.5 -157t-135 -107.5t-192 -41.5t-192 41.5t-135 107.5t-83.5 157t-44.5 181t-12 189zM262 682q0 -63 4.5 -120t16 -126 t35.5 -124t59 -102.5t91 -74t126 -26.5q61 0 110.5 20.5t83 54t59 82t40 98t23 109t11.5 108t3 101.5q0 63 -4.5 119.5t-16 126t-35 124t-58.5 102t-90.5 73.5t-125.5 26q-61 0 -110.5 -20.5t-83.5 -53.5t-59.5 -81t-40 -97t-23.5 -108.5t-12 -108t-3 -102.5z" />
<glyph unicode="1" d="M236 1071l2 100q120 24 211 60.5t159 101.5h103v-1206l305 -2v-94h-778v96h342v1061q-160 -86 -344 -117z" />
<glyph unicode="2" d="M139 1130q77 107 191.5 167.5t244.5 60.5q181 0 300.5 -104.5t119.5 -282.5q0 -48 -14 -98.5t-34.5 -95t-57 -96t-68 -90.5t-83 -89.5t-86 -82t-93 -79.5t-87.5 -71t-85.5 -67t-73.5 -57h736v-114h-893v102q15 12 86.5 70t109.5 90t112 97.5t119 111.5t103 113t90.5 120 t56 114t23.5 114q0 131 -81 206.5t-214 75.5q-97 0 -182 -46.5t-141 -127.5z" />
<glyph unicode="3" d="M121 240l110 61q55 -90 150 -137t205 -47q139 0 229 72.5t90 207.5q0 58 -17 102.5t-49.5 71.5t-69 45t-87.5 26t-91.5 10.5t-94.5 2.5v105q62 0 108 4t98.5 19.5t86.5 41.5t56.5 73.5t22.5 113.5q0 116 -83 175.5t-203 59.5q-98 0 -185.5 -39t-146.5 -112l-92 63 q166 199 430 199q77 0 149 -20t132 -59t96 -103.5t36 -145.5q0 -109 -66 -180.5t-183 -130.5q59 -23 108 -52t91.5 -69.5t66.5 -94t24 -116.5q0 -93 -38.5 -167t-103 -120t-145.5 -70t-169 -24q-150 0 -271 57t-194 177z" />
<glyph unicode="4" d="M95 433.5q0 20.5 3 35.5q1 6 28 58.5t58.5 113t38.5 76.5q144 341 154 616l110 2q-7 -217 -87 -444.5t-207 -433.5h569v577h127v-577h201v-107h-201v-319h-127v319h-664q0 11 -1.5 37t-1.5 46.5z" />
<glyph unicode="5" d="M135 225l109 64q53 -84 139.5 -127t189.5 -43q152 0 246 84.5t94 234.5q0 146 -91.5 229t-239.5 83q-185 0 -301 -125l-76 37l41 671h727v-114h-627l-41 -486q168 119 322 119q184 0 304 -113t120 -295q0 -199 -134.5 -318.5t-336.5 -119.5q-140 0 -256.5 54t-188.5 165z " />
<glyph unicode="6" d="M135 481q0 99 27 198.5t69.5 183.5t106 171.5t125.5 156t139 142.5h172q-333 -283 -506 -694q203 225 400 225q181 0 294 -118t113 -300q0 -202 -133 -321t-338 -119q-219 0 -344 128t-125 347zM270 442q0 -149 92.5 -237t243.5 -88q150 0 240 87.5t90 237.5t-90 237 t-240 87t-243 -87.5t-93 -236.5z" />
<glyph unicode="7" d="M133 1219v114h932v-114q-103 -132 -192 -266.5t-173 -290t-138 -319.5t-66 -312h-146q11 121 52.5 254t96.5 249.5t132.5 245.5t146.5 228t154 211h-799z" />
<glyph unicode="8" d="M123 385q0 234 291 352q-52 24 -91.5 50t-75 61t-54.5 81t-19 101q0 80 37.5 144.5t99 103.5t134.5 59.5t149 20.5t149 -20.5t134.5 -59.5t99 -103.5t37.5 -144.5q0 -104 -65 -172.5t-177 -120.5q291 -118 291 -352q0 -76 -26.5 -139.5t-71.5 -107t-105.5 -74 t-127.5 -44.5t-138 -14t-138.5 14t-128 44.5t-106 74t-72 107t-26.5 139.5zM262 397q0 -95 46.5 -161t119.5 -95.5t166 -29.5q144 0 238 73.5t94 212.5q0 142 -93 212.5t-239 70.5t-239 -70.5t-93 -212.5zM309 1016q0 -80 41 -135t103.5 -79t140.5 -24t140.5 24t103.5 79 t41 135t-41 135t-103.5 79.5t-140.5 24.5t-140.5 -24.5t-103.5 -79.5t-41 -135z" />
<glyph unicode="9" d="M113 918q0 202 133 321t338 119q219 0 344 -128t125 -347q0 -99 -27 -198.5t-69.5 -183.5t-106 -171.5t-125.5 -156t-139 -142.5h-172q333 283 506 694q-203 -225 -400 -225q-181 0 -294 118t-113 300zM252 922q0 -150 90 -237t240 -87t243 87.5t93 236.5t-92.5 237 t-243.5 88q-150 0 -240 -87.5t-90 -237.5z" />
<glyph unicode=":" horiz-adv-x="604" d="M223 31v155h158v-155h-158zM223 879v155h158v-155h-158z" />
<glyph unicode=";" horiz-adv-x="604" d="M223 31v155h158v-170q0 -159 -129 -282l-23 22q99 92 99 201v74h-105zM223 879v155h158v-155h-158z" />
<glyph unicode="&#x3c;" d="M266 625l533 530l63 -65l-463 -465l463 -465l-63 -64z" />
<glyph unicode="=" d="M137 375v96h914v-96h-914zM137 776v94h914v-94h-914z" />
<glyph unicode="&#x3e;" d="M326 160l465 465l-465 465l63 65l533 -530l-533 -529z" />
<glyph unicode="?" horiz-adv-x="1046" d="M121 1217q170 141 377 141q117 0 212 -42.5t154.5 -130t59.5 -206.5q0 -90 -35 -162t-96 -119t-135.5 -76t-161.5 -40v-140h-111v234q74 -8 145.5 7.5t129 51t93 97.5t35.5 141q0 128 -87 201t-218 73q-170 0 -309 -114zM360 31v147h158v-147h-158z" />
<glyph unicode="@" horiz-adv-x="1724" d="M119 614q0 211 99 382t271 266.5t383 95.5q154 0 291.5 -54.5t238 -149.5t159.5 -230.5t59 -290.5q0 -57 -10 -111t-33 -104t-56 -87.5t-83.5 -60t-112.5 -22.5q-146 0 -223 168q-122 -172 -283 -172q-99 0 -173 52.5t-109 134.5t-35 179q0 100 36 182.5t110 134.5 t175 52q79 0 143 -44.5t128 -121.5v150h92q0 -24 -3.5 -72t-8 -96.5t-6 -108.5t0 -113t11.5 -105t28 -89t50.5 -59.5t76.5 -22.5q61 0 106.5 29.5t69 78t34.5 101.5t11 110q0 194 -87.5 350.5t-243.5 245t-351 88.5q-192 0 -348 -90t-244.5 -247t-88.5 -349t88.5 -348.5 t244.5 -246t348 -89.5q172 0 312 76l26 -51q-165 -80 -346 -80q-157 0 -295.5 55.5t-237.5 153t-156.5 235t-57.5 295.5zM600 610q0 -124 63 -207.5t183 -83.5q118 0 183 84.5t65 206.5q0 124 -65 208.5t-185 84.5q-119 0 -181.5 -85t-62.5 -208z" />
<glyph unicode="A" horiz-adv-x="1366" d="M68 31l530 1302h170l532 -1302h-149l-145 379h-656l-147 -379h-135zM391 516h576l-285 748z" />
<glyph unicode="B" horiz-adv-x="1353" d="M215 31v1302h541q62 0 118 -8.5t110 -30t93.5 -54t63.5 -85t24 -119.5q0 -185 -219 -299q277 -110 277 -346q0 -91 -33.5 -161.5t-92 -113t-133.5 -64t-163 -21.5h-586zM346 141h449q130 0 209 67t79 193q0 125 -76.5 195t-203.5 70h-457v-525zM346 770h414 q119 0 196.5 62t77.5 178q0 211 -284 211h-404v-451z" />
<glyph unicode="C" horiz-adv-x="1372" d="M129 682q0 141 44 264.5t124 215t200 144t263 52.5q312 0 493 -236l-100 -69q-68 92 -170 141t-219 49q-118 0 -213.5 -44.5t-156.5 -121.5t-93.5 -177.5t-32.5 -215.5q0 -114 32 -215t92 -179.5t155 -124.5t213 -46t221 51.5t172 146.5l107 -67q-87 -117 -218 -180.5 t-280 -63.5q-144 0 -264 52.5t-200.5 143.5t-124.5 214.5t-44 265.5z" />
<glyph unicode="D" horiz-adv-x="1474" d="M215 31v1302h498q291 0 460.5 -179t169.5 -472t-169.5 -472t-460.5 -179h-498zM348 145h365q158 0 270.5 70.5t166.5 190t54 276.5t-54 276.5t-166.5 190t-270.5 70.5h-365v-1074z" />
<glyph unicode="E" horiz-adv-x="1269" d="M215 31v1302h905v-114h-774v-447h674v-104h-674v-523h795v-114h-926z" />
<glyph unicode="F" horiz-adv-x="1232" d="M215 31v1302h924v-114h-793v-455h672v-105h-672v-628h-131z" />
<glyph unicode="G" horiz-adv-x="1476" d="M129 684q0 142 44 265t123.5 214t199.5 143t264 52q312 0 493 -236l-100 -69q-68 92 -170 141t-219 49q-120 0 -215.5 -44.5t-156 -122t-92.5 -178t-32 -216.5t32 -217t92.5 -178.5t156 -122.5t215.5 -45q203 0 331.5 120.5t143.5 323.5l-405 2l-3 103l531 2l4 -72 q1 -19 1 -38q0 -148 -69 -268q-78 -137 -218.5 -211.5t-313.5 -74.5q-193 0 -339 90t-222 243t-76 345z" />
<glyph unicode="H" horiz-adv-x="1492" d="M215 31v1302h131v-555h801v555h131v-1302h-131v635h-801v-635h-131z" />
<glyph unicode="I" horiz-adv-x="559" d="M215 31v1302h129v-1302h-129z" />
<glyph unicode="J" horiz-adv-x="1036" d="M84 172l102 66q92 -117 248 -117q137 0 204 82.5t67 222.5v907h131v-905q0 -196 -108 -309t-302 -113q-228 0 -342 166z" />
<glyph unicode="K" horiz-adv-x="1323" d="M215 31v1302h129v-780l707 780h147l-496 -545l558 -757h-160l-486 667l-270 -301v-366h-129z" />
<glyph unicode="L" horiz-adv-x="1163" d="M215 31v1302h129v-1188h758v-114h-887z" />
<glyph unicode="M" horiz-adv-x="1800" d="M215 31v1302h236l452 -1179l453 1179h229v-1302h-127v1300l-495 -1300h-125l-500 1300v-1300h-123z" />
<glyph unicode="N" horiz-adv-x="1492" d="M215 31v1302h199l741 -1173v1173h123v-1302h-178l-762 1200v-1200h-123z" />
<glyph unicode="O" horiz-adv-x="1525" d="M127 682q0 142 45 265.5t125.5 214.5t200.5 143.5t264 52.5t264.5 -52t201.5 -143t126 -215t45 -266t-45 -266t-126 -215t-201.5 -143t-264.5 -52t-264 52.5t-200.5 143.5t-125.5 214.5t-45 265.5zM266 682q0 -115 32.5 -215.5t93.5 -177.5t156.5 -121.5t213.5 -44.5 q157 0 271 77.5t169 202t55 279.5t-55 279t-169 201t-271 77q-118 0 -213.5 -44t-156.5 -121t-93.5 -177t-32.5 -215z" />
<glyph unicode="P" horiz-adv-x="1298" d="M215 31v1302h543q198 0 324 -100.5t126 -292.5q0 -70 -16 -126.5t-42.5 -96.5t-68.5 -70.5t-84.5 -49t-101 -31t-108.5 -16.5q-49 -4 -115 -6q-33 -1 -62 -1q-28 1 -52 1q-48 2 -111.5 3.5t-100.5 1.5v-518h-131zM346 664h412q141 0 227 69.5t86 206.5t-86.5 208 t-226.5 71h-412v-555z" />
<glyph unicode="Q" horiz-adv-x="1525" d="M127 682q0 142 45 265.5t125.5 214.5t200.5 143.5t264 52.5t264.5 -52t201.5 -143t126 -215t45 -266q0 -155 -60.5 -295t-173.5 -244l154 -182l-82 -70l-158 193q-159 -78 -317 -78q-144 0 -264 52.5t-200.5 143.5t-125.5 214.5t-45 265.5zM266 682q0 -115 32.5 -215.5 t93.5 -177.5t156.5 -121.5t213.5 -44.5q117 0 233 61l-147 183l80 63l155 -188q174 177 174 440q0 155 -55 279t-169 201t-271 77q-118 0 -213.5 -44t-156.5 -121t-93.5 -177t-32.5 -215z" />
<glyph unicode="R" horiz-adv-x="1353" d="M215 31v1302h567q88 0 164 -23t135 -67t93 -115.5t34 -162.5q0 -133 -81 -226t-214 -139l312 -569h-148l-291 549h-440v-549h-131zM346 686h436q124 0 206.5 71t82.5 193q0 125 -83.5 197t-211.5 72h-430v-533z" />
<glyph unicode="S" horiz-adv-x="1239" d="M131 229l92 82q72 -97 182.5 -147.5t235.5 -50.5q51 0 98.5 9t92 30t77.5 51t52.5 74.5t19.5 99.5q0 62 -28 107t-75 72.5t-108.5 47t-129.5 34.5t-135.5 31t-129 41.5t-108.5 61t-75 94t-28 135.5q0 73 25.5 133t68 101t100 69t121 41t131.5 13q287 0 451 -195l-82 -76 q-70 80 -169.5 121t-209.5 41q-58 0 -109.5 -12t-97 -37.5t-72 -71.5t-26.5 -108q0 -58 28 -101t75.5 -69.5t109 -46t129 -35.5t135.5 -33t129.5 -44t109 -64t75.5 -96.5t28 -137.5q0 -79 -27.5 -144.5t-74 -109.5t-109.5 -74.5t-132.5 -44.5t-143.5 -14q-349 0 -496 223z " />
<glyph unicode="T" horiz-adv-x="1226" d="M84 1219v114h1059v-114h-465v-1188h-131v1188h-463z" />
<glyph unicode="U" horiz-adv-x="1454" d="M199 512v821h129v-821q0 -179 108.5 -284t288.5 -105q179 0 290 105.5t111 283.5v821h129v-821q0 -231 -148.5 -368.5t-381.5 -137.5q-234 0 -380 137t-146 369z" />
<glyph unicode="V" horiz-adv-x="1296" d="M70 1333h141l438 -1196l445 1196h133l-500 -1302h-158z" />
<glyph unicode="W" horiz-adv-x="1929" d="M94 1333h137l314 -1204l354 1204h139l355 -1210l311 1210h133l-362 -1302h-168l-342 1186l-342 -1186h-174z" />
<glyph unicode="X" horiz-adv-x="1329" d="M76 31l506 678l-465 624h153l396 -549l399 549h145l-462 -624l505 -678h-157l-434 590l-437 -590h-149z" />
<glyph unicode="Y" horiz-adv-x="1257" d="M68 1333h153l412 -661l416 661h143l-498 -768v-534h-131v532z" />
<glyph unicode="Z" horiz-adv-x="1232" d="M115 31v119l825 1069h-795v114h951v-114l-830 -1074h846v-114h-997z" />
<glyph unicode="[" horiz-adv-x="610" d="M195 -190v1622h364v-80h-264v-1465h264v-77h-364z" />
<glyph unicode="\" horiz-adv-x="722" d="M102 1432h80l434 -1622h-79z" />
<glyph unicode="]" horiz-adv-x="612" d="M49 -113h268v1465h-268v80h369v-1622h-369v77z" />
<glyph unicode="^" d="M94 895l438 438h123l439 -438l-64 -68l-434 437l-438 -437z" />
<glyph unicode="_" horiz-adv-x="1243" d="M41 -184h1161v-41h-1161v41z" />
<glyph unicode="`" horiz-adv-x="655" d="M180 1438l107 18q56 -98 153 -211l-30 -24q-154 100 -230 217z" />
<glyph unicode="a" horiz-adv-x="1161" d="M109 299q0 79 30.5 134.5t80 83t113 46t129.5 25t129.5 18.5t113 27.5t80 51.5t30.5 91q0 52 -25 90t-67 58t-87 29.5t-93 9.5q-160 0 -301 -86v104q78 53 138.5 65.5t174.5 12.5q116 0 196.5 -33t120.5 -89q39 -57 58 -129q19 -71 19 -148q-1 -77 -7 -165 q-6 -81 -10 -153q-2 -31 -1 -59q0 -37 3 -69q6 -56 34.5 -89t82.5 -33l22 2l2 -74q-30 -6 -61 -6q-47 0 -81.5 18t-55.5 51t-32 69t-18 84q-78 -110 -171.5 -170t-215.5 -60q-147 0 -239 75t-92 218zM229 303q0 -104 72 -157.5t180 -53.5q149 0 243.5 85.5t94.5 232.5v272 q-30 -38 -49 -59.5t-53 -46.5t-68 -33q-31 -8 -84.5 -15.5t-94.5 -13.5t-88.5 -20.5t-79 -36t-52.5 -61t-21 -93.5z" />
<glyph unicode="b" horiz-adv-x="1296" d="M190 31v1401h117v-641q89 127 185 197.5t225 70.5q109 0 197.5 -43t145 -116t86.5 -167.5t30 -200.5t-30 -200t-86.5 -167t-145 -116t-197.5 -43q-68 0 -128 20t-110 58.5t-90 83t-82 104.5v-241h-117zM307 530q0 -180 99.5 -300.5t275.5 -120.5q90 0 161 33.5t115 92 t66.5 133.5t22.5 162q0 117 -38.5 211t-123 153.5t-203.5 59.5t-205.5 -59t-128 -153.5t-41.5 -211.5z" />
<glyph unicode="c" horiz-adv-x="1097" d="M121 532q0 147 57 265.5t169 190t259 71.5q113 0 212.5 -48t168.5 -137l-84 -67q-51 72 -126.5 111.5t-164.5 39.5q-115 0 -199.5 -61t-124.5 -156t-40 -209q0 -113 39.5 -208t123.5 -156.5t199 -61.5q89 0 165 38.5t130 109.5l88 -61q-70 -90 -171 -138.5t-216 -48.5 q-111 0 -203 41.5t-153.5 112.5t-95 167t-33.5 205z" />
<glyph unicode="d" horiz-adv-x="1298" d="M123 530q0 106 30 200.5t86 168.5t145 117t198 43q128 0 225 -71.5t184 -196.5v641h117v-1401h-117v241q-86 -125 -183 -195.5t-226 -70.5q-109 0 -197.5 42.5t-145 115t-86.5 166.5t-30 200zM250 532q0 -87 22.5 -162t66 -134t114.5 -93t161 -34q177 0 277 121.5 t100 301.5q0 118 -42 212t-129 152t-206 58q-118 0 -202.5 -59.5t-123 -153t-38.5 -209.5z" />
<glyph unicode="e" horiz-adv-x="1200" d="M121 528q0 148 58 268t171 191.5t262 71.5q217 1 353 -143q126 -133 126 -326q0 -16 -1 -31l-3 -39h-839q8 -185 108.5 -298t282.5 -113t295 110l98 -53q-80 -77 -182.5 -118.5t-214.5 -41.5q-235 0 -374.5 143.5t-139.5 378.5zM252 596h717q-14 165 -106 268t-253 103 q-158 0 -251.5 -104t-106.5 -267z" />
<glyph unicode="f" horiz-adv-x="716" d="M82 948v86h182v18q0 64 0.5 95t6 82.5t16 77t31 59.5t51 49.5t76.5 27t106 11.5q73 0 108 -8v-92q-43 9 -81 11h-16q-30 0 -60 -6q-37 -8 -63 -26.5t-42 -54t-16 -84.5v-160h250v-86h-250v-917h-117v917h-182z" />
<glyph unicode="g" horiz-adv-x="1302" d="M125 567q0 135 55.5 246.5t161 178.5t242.5 67q134 0 231 -73t180 -204v252h117v-862q0 -263 -133.5 -390.5t-398.5 -127.5q-244 0 -408 96l78 92q131 -88 332 -88q189 0 301 97t112 284v221q-174 -274 -420 -274q-136 0 -239.5 66t-157 175.5t-53.5 243.5zM252 571 q0 -172 98.5 -281.5t267.5 -109.5q170 0 274.5 110t104.5 281t-104 278t-275 107q-169 0 -267.5 -107t-98.5 -278z" />
<glyph unicode="h" horiz-adv-x="1222" d="M190 31v1401h117v-644q40 60 77.5 103.5t86 84.5t107 62t124.5 21q165 0 253.5 -102.5t88.5 -270.5v-655h-116v614q0 141 -65.5 224t-203.5 83q-86 0 -151 -28.5t-104.5 -74t-64.5 -113.5t-34.5 -135t-11.5 -153q-1 -28 -1 -54q0 -52 3 -96q4 -66 8 -145.5t4 -121.5h-117 z" />
<glyph unicode="i" horiz-adv-x="497" d="M190 31v1003h117v-1003h-117zM190 1305v127h117v-127h-117z" />
<glyph unicode="j" horiz-adv-x="497" d="M-106 -238q48 -12 89 -12q75 0 127 41q80 64 80 203v1040h117v-1036q0 -158 -83.5 -249t-239.5 -91q-61 0 -90 6v98zM190 1305v127h117v-127h-117z" />
<glyph unicode="k" horiz-adv-x="1165" d="M190 31v1401h117v-994l578 596h139l-397 -403l463 -600h-148l-395 526l-240 -242v-284h-117z" />
<glyph unicode="l" horiz-adv-x="509" d="M197 31v1401h116v-1401h-116z" />
<glyph unicode="m" horiz-adv-x="1888" d="M190 31v1003h117v-241q40 59 74 100.5t81 82.5t102.5 62t119.5 21q121 0 194.5 -65t116.5 -187q166 252 385 252q162 0 246 -100t84 -265v-663h-117v620q0 139 -60 220t-194 81q-82 0 -144.5 -29.5t-99.5 -76.5t-60.5 -116.5t-32 -138t-9.5 -153.5v-33q0 -65 3 -117 q4 -66 8 -142t4 -115h-117v620q0 139 -60 220t-194 81q-82 0 -144.5 -29.5t-99.5 -76.5t-60.5 -116.5t-31.5 -137.5q-7 -69 -9 -154q0 -23 -1 -45q0 -58 3 -106q4 -66 8.5 -141.5t4.5 -114.5h-117z" />
<glyph unicode="n" horiz-adv-x="1222" d="M190 31v1003h117v-246q40 60 77.5 103.5t86 84.5t107 62t124.5 21q165 0 253.5 -102.5t88.5 -270.5v-655h-116v614q0 141 -65.5 224t-203.5 83q-154 0 -253 -103.5t-99 -258.5v-559h-117z" />
<glyph unicode="o" horiz-adv-x="1228" d="M121 530q0 150 57.5 269.5t170.5 189.5t265 70q151 0 264.5 -70.5t171.5 -190t58 -268.5q0 -111 -34.5 -207t-97 -166.5t-156 -110.5t-206.5 -40q-151 0 -264 69t-171 187t-58 268zM248 530q0 -84 23.5 -160t68 -135.5t115.5 -95t159 -35.5q116 0 201 61.5t124.5 156 t39.5 208.5q0 85 -23 161t-67.5 136t-115 95.5t-159.5 35.5t-160 -35.5t-115 -95.5t-67.5 -136t-23.5 -161z" />
<glyph unicode="p" horiz-adv-x="1296" d="M190 -326v1360h117v-243q89 127 185 197.5t225 70.5q109 0 197.5 -43.5t145 -117t86.5 -167.5t30 -199q0 -106 -30 -200t-86.5 -167t-145 -116t-197.5 -43q-68 0 -128 20t-110 58.5t-90 83t-82 104.5v-598h-117zM307 530q0 -116 42 -210t128.5 -152.5t204.5 -58.5 q90 0 161 33.5t115 92t66.5 133.5t22.5 162q0 117 -38.5 211t-123 153.5t-203.5 59.5t-205.5 -59t-128 -153.5t-41.5 -211.5z" />
<glyph unicode="q" horiz-adv-x="1298" d="M123 530q0 105 30.5 199.5t86.5 168.5t144.5 117.5t197.5 43.5q129 0 224.5 -70.5t184.5 -197.5v243h117v-1360h-117v598q-86 -125 -183 -195.5t-226 -70.5q-109 0 -197.5 42.5t-145 115t-86.5 166.5t-30 200zM250 532q0 -86 23 -161.5t66.5 -134.5t114.5 -93t160 -34 q177 0 277 121.5t100 301.5q0 118 -42 212t-129 152t-206 58q-90 0 -160.5 -34t-114.5 -92.5t-66.5 -133.5t-22.5 -162z" />
<glyph unicode="r" horiz-adv-x="804" d="M190 31v1003h117v-256q29 46 50 75.5t56.5 72t68 67.5t76.5 43.5t89 18.5q55 0 94 -19l-39 -110q-34 14 -90 14q-74 0 -134 -34t-96.5 -90.5t-55.5 -123.5t-19 -137v-524h-117z" />
<glyph unicode="s" horiz-adv-x="1060" d="M121 184l72 72q65 -77 158 -117.5t196 -40.5q52 0 98.5 10.5t88.5 33t66.5 63.5t24.5 96q0 52 -29 88.5t-76 54.5t-107.5 33t-124 24.5t-124 29.5t-107.5 47t-76 77.5t-29 120.5q0 59 21.5 107.5t57 80.5t84 54t99.5 31.5t106 9.5q225 0 371 -137l-72 -66 q-111 111 -301 111q-44 0 -86.5 -9t-82 -28t-63.5 -54.5t-24 -82.5q0 -58 37.5 -96t97.5 -57t132.5 -33t145 -32t132.5 -45.5t97.5 -82t37.5 -132.5q0 -82 -35 -143.5t-94.5 -96.5t-128.5 -52t-147 -17q-287 0 -416 178z" />
<glyph unicode="t" horiz-adv-x="806" d="M70 948v86h184v299h117v-299h344v-86h-344v-626q0 -100 48 -158t146 -58q71 0 115 25l43 -82q-65 -43 -176 -43q-293 0 -293 316v626h-184z" />
<glyph unicode="u" horiz-adv-x="1222" d="M178 377v657h117v-616q0 -141 64 -224t202 -83q156 0 255 103t99 259v561h117v-1003h-117v239q-41 -59 -78.5 -101t-86.5 -82t-107 -60.5t-123 -20.5q-165 0 -253.5 101.5t-88.5 269.5z" />
<glyph unicode="v" horiz-adv-x="1095" d="M74 1034h135l342 -907l342 907h129l-401 -1003h-146z" />
<glyph unicode="w" horiz-adv-x="1613" d="M98 1034h125l236 -932l293 932h118l289 -932l240 932h117l-277 -1003h-149l-281 907l-285 -907h-149z" />
<glyph unicode="x" horiz-adv-x="1101" d="M90 31l389 524l-352 479h137l291 -413l287 413h133l-350 -479l383 -524h-140l-319 452l-320 -452h-139z" />
<glyph unicode="y" horiz-adv-x="1095" d="M74 1034h137l362 -882l322 882h125l-410 -1073q-27 -73 -52 -120.5t-64 -94t-94.5 -69.5t-127.5 -23q-107 0 -157 33l24 92q64 -31 121 -31q41 0 76 15t58 36.5t45 56.5t35 63.5t30 69.5l6 15z" />
<glyph unicode="z" horiz-adv-x="1040" d="M113 31v104l653 801h-627v98h766v-102l-657 -805h676v-96h-811z" />
<glyph unicode="{" horiz-adv-x="735" d="M78 582v77q83 0 136 27t75.5 72t31 104t7.5 123.5t-0.5 129.5t13.5 124t43 104t93.5 72t159.5 27h53v-78q-110 0 -170.5 -31t-77 -83.5t-15.5 -118t3 -139t-10 -141t-66.5 -130t-154.5 -100.5q80 -30 130.5 -75.5t71 -95.5t27 -106.5t3.5 -111t-5 -107.5t6.5 -97.5 t33.5 -78.5t81 -53t143 -19v-80q-113 0 -189 27t-111.5 72.5t-51.5 104t-16 123.5t2.5 130.5t-4 124t-27.5 104t-74.5 72.5t-140.5 27z" />
<glyph unicode="|" horiz-adv-x="464" d="M195 -190v1622h75v-1622h-75z" />
<glyph unicode="}" horiz-adv-x="735" d="M45 -123q88 0 144 19t81.5 53t34 78.5t7 97.5t-5 107.5t3.5 111t27.5 106.5t72 95.5t131.5 75.5q-80 30 -131.5 75.5t-72 95t-27.5 106t-3.5 111.5t5 107.5t-7 97t-34 78.5t-81.5 53t-144 19v78q79 0 139.5 -13t99 -36t66 -55t39 -69.5t18.5 -80t5.5 -87t-0.5 -89.5 q0 -55 -1 -106.5t11.5 -96.5t36.5 -78.5t74 -52.5t124 -19v-77q-83 0 -136 -27t-75.5 -72.5t-30.5 -104t-7.5 -123.5t0 -130.5t-13.5 -124t-42 -104t-92.5 -72.5t-159.5 -27h-55v80z" />
<glyph unicode="~" horiz-adv-x="1249" d="M150 567q74 86 149 137.5t162 51.5q46 0 97 -23t88.5 -50t85 -50t89.5 -23q65 0 120 36.5t112 98.5l51 -47q-74 -85 -149 -136.5t-162 -51.5q-46 0 -97 22.5t-88.5 50t-85.5 50t-90 22.5q-65 0 -119 -36.5t-112 -98.5z" />
<glyph unicode="&#xa1;" horiz-adv-x="544" d="M201 868v166h143v-166h-143zM203 -270q29 339 51 886h37l51 -886h-139z" />
<glyph unicode="&#xa2;" d="M152 532q0 217 122.5 361t337.5 164v168h50v-168q226 -20 356 -183l-84 -67q-94 128 -272 151v-854q179 23 274 150l88 -61q-129 -162 -362 -185v-170h-50v170q-143 12 -248 83t-158.5 184.5t-53.5 256.5zM279 532q0 -167 86.5 -282.5t246.5 -145.5v854 q-160 -29 -246.5 -144.5t-86.5 -281.5z" />
<glyph unicode="&#xa3;" d="M88 606v72h178q-2 5 -17.5 40t-19 44.5t-15.5 40t-16 46t-10.5 41.5t-9 47.5t-2.5 43.5q0 120 61.5 208t159 129.5t215.5 41.5q133 0 243.5 -55.5t186.5 -161.5l-104 -62q-57 78 -141 120t-181 42q-129 0 -217 -71.5t-88 -198.5q0 -30 4.5 -59t16.5 -65.5t18 -53 t26 -63.5t23 -54h398v-72h-381q28 -94 28 -147q0 -49 -16 -98t-49 -98.5t-57.5 -80.5t-67.5 -80q6 3 41 18t48 20.5t44.5 17t51 16.5t45.5 9.5t48 4.5q56 0 163 -31.5t163 -31.5q110 0 166 111l92 -52q-84 -178 -239 -178q-70 0 -205 44t-207 44q-143 0 -295 -76l-41 82 q92 58 148.5 137t56.5 175q0 92 -45 194h-201z" />
<glyph unicode="&#xa5;" d="M172 1090h129l299 -543l295 543h123l-307 -529h252v-41h-273l-39 -61v-127h312v-41h-312v-260h-110v260h-316v41h316v125l-41 63h-275v41h254z" />
<glyph unicode="&#xa6;" horiz-adv-x="460" d="M199 -190v581h63v-581h-63zM199 850v582h63v-582h-63z" />
<glyph unicode="&#xa7;" horiz-adv-x="1101" d="M106 842q0 229 145 373.5t374 144.5q179 0 319 -94l-65 -84q-106 82 -258 82q-225 0 -353 -205q40 -25 113 -68.5t122.5 -73t118 -76.5t115.5 -86.5t98 -94.5t81.5 -109t50.5 -122.5t20 -141.5q0 -230 -142.5 -375t-371.5 -145q-188 0 -319 94l63 84q106 -82 260 -82 q225 0 348 207q-39 24 -112 68t-122 73.5t-118 77t-115.5 87t-98 95t-82 109.5t-51 122t-20.5 140zM215 858q0 -68 18 -131t45.5 -113.5t72.5 -102t87.5 -89.5t103.5 -82t107 -73.5t110.5 -71.5t102.5 -68q19 126 19 160q0 62 -18.5 122t-46.5 109t-74 100t-89 89 t-103.5 82.5t-105 73.5t-106.5 69.5t-96 64.5q-27 -87 -27 -139z" />
<glyph unicode="&#xa8;" horiz-adv-x="655" d="M66 1253v99h94v-99h-94zM496 1253v99h92v-99h-92z" />
<glyph unicode="&#xa9;" horiz-adv-x="1601" d="M111 682q0 140 55 267t147.5 219.5t220 147t267.5 54.5q186 0 344.5 -92.5t251 -251t92.5 -344.5q0 -139 -55 -266t-147.5 -219.5t-219.5 -147.5t-266 -55q-140 0 -267.5 54.5t-220 147t-147.5 219.5t-55 267zM160 682q0 -130 51 -248.5t137 -204.5t204.5 -137t248.5 -51 t248 51t204 137t136.5 204.5t50.5 248.5t-50.5 248.5t-136.5 204.5t-204 137t-248 51t-248.5 -51t-204.5 -137t-137 -204.5t-51 -248.5zM422 682q0 157 111 269t268 112q91 0 173 -43t136 -119l-57 -39q-45 59 -111 93t-139 34q-126 0 -217.5 -90.5t-91.5 -216.5 t91.5 -216.5t217.5 -90.5q73 0 139 34.5t113 94.5l59 -37q-54 -77 -137 -120.5t-176 -43.5q-157 0 -268 111t-111 268z" />
<glyph unicode="&#xaa;" horiz-adv-x="903" d="M129 877q0 58 25.5 95.5t66 53.5t89 24t97.5 12.5t89.5 13.5t66 33t25.5 65q0 42 -32 69.5t-70.5 37t-79.5 9.5q-105 0 -185 -45v55q49 31 86.5 39.5t104.5 8.5q77 0 129 -20.5t77 -55t37 -79.5t11 -94.5t-5 -99t-5.5 -94.5t4.5 -79.5t29 -55t65 -20.5v-48 q-80 0 -111.5 26t-50.5 108q-58 -71 -116 -104.5t-140 -33.5q-87 0 -147 47t-60 132zM201 883q0 -66 47.5 -99.5t116.5 -33.5q96 0 161.5 52t65.5 146v170q-55 -50 -94.5 -69t-112.5 -31q-30 -5 -43.5 -7.5t-40.5 -9.5t-40.5 -16t-29.5 -22.5t-23 -33.5t-7 -46z" />
<glyph unicode="&#xab;" horiz-adv-x="950" d="M96 512v41l271 360l55 -45l-244 -336l244 -337l-55 -43zM481 512v41l271 360l57 -45l-246 -336l246 -337l-57 -43z" />
<glyph unicode="&#xac;" horiz-adv-x="1214" d="M143 575v95h914v-504h-94v409h-820z" />
<glyph unicode="&#xad;" horiz-adv-x="804" d="M158 526v99h489v-99h-489z" />
<glyph unicode="&#xae;" horiz-adv-x="1574" d="M98 682q0 140 55 267t147.5 219.5t220 147t267.5 54.5q186 0 345 -92.5t251.5 -251t92.5 -344.5q0 -139 -55 -266t-147.5 -219.5t-220 -147.5t-266.5 -55q-140 0 -267.5 54.5t-220 147t-147.5 219.5t-55 267zM147 682q0 -130 51 -248.5t137 -204.5t204.5 -137t248.5 -51 t248.5 51t205 137t137.5 204.5t51 248.5t-51 248.5t-137.5 204.5t-205 137t-248.5 51t-248.5 -51t-204.5 -137t-137 -204.5t-51 -248.5zM526 324v720h310q107 0 177 -53.5t70 -156.5q0 -141 -168 -205l166 -305h-80l-157 292h-242v-292h-76zM602 668h232q75 0 122.5 43.5 t47.5 117.5t-47.5 119t-122.5 45h-232v-325z" />
<glyph unicode="&#xaf;" horiz-adv-x="671" d="M57 1276v57h553v-57h-553z" />
<glyph unicode="&#xb0;" horiz-adv-x="692" d="M70 1178q0 115 80.5 196.5t195.5 81.5t196 -82t81 -196t-81.5 -195.5t-195.5 -81.5t-195 81.5t-81 195.5zM127 1178q0 -88 65.5 -154t153.5 -66t153.5 66t65.5 154q0 89 -65 154t-154 65t-154 -65t-65 -154z" />
<glyph unicode="&#xb1;" d="M135 31v94h914v-94h-914zM135 721v94h408v397h96v-397h410v-94h-410v-393h-96v393h-408z" />
<glyph unicode="&#xb2;" horiz-adv-x="782" d="M98 1403q112 137 275 137q118 0 199 -62.5t81 -177.5q0 -48 -24.5 -101t-56.5 -94.5t-88.5 -95t-92.5 -82.5t-98 -77.5t-78 -61.5h471v-69h-575v65q5 4 47.5 36t61 47t63.5 51t70 59.5t63 60t60 66t45 63t33.5 65t10.5 60.5q0 81 -60 128.5t-143 47.5q-118 0 -204 -100z " />
<glyph unicode="&#xb3;" horiz-adv-x="794" d="M100 848l74 29q71 -103 225 -103q83 0 143 44t60 124q0 32 -9 56.5t-21.5 40.5t-35.5 27t-41 16.5t-49.5 8t-49 3t-50.5 0.5h-8v67q41 0 68.5 1.5t64 10t58 24t37.5 45t16 71.5q0 78 -59.5 116.5t-141.5 38.5q-133 0 -209 -88l-57 37q100 123 276 123q69 0 128 -20 t101 -69t42 -120q0 -66 -38 -110t-108 -84q172 -63 172 -201q0 -112 -86 -173t-203 -61q-211 0 -299 146z" />
<glyph unicode="&#xb4;" horiz-adv-x="655" d="M244 1247q88 97 153 209l107 -18q-38 -60 -101.5 -118t-130.5 -99z" />
<glyph unicode="&#xb5;" d="M166 -326v1360h117v-606q0 -69 14.5 -125t44.5 -101.5t82.5 -70.5t124.5 -25q67 0 120.5 19t90 51.5t63.5 80t41.5 99t22.5 115t9.5 121.5t-0.5 124.5t-5.5 118.5t-6.5 108.5t-3 90.5h116v-796q0 -66 22.5 -108t80.5 -38l30 2l11 -69q-46 -11 -76 -11q-161 0 -174 240 q-160 -248 -346 -248q-87 0 -147 50.5t-115 140.5v-523h-117z" />
<glyph unicode="&#xb6;" horiz-adv-x="1136" d="M102 946q0 168 111 277.5t279 109.5h452v-1489h-41v1436h-194v-1436h-68v713q-67 0 -118.5 3t-110 13t-101.5 27t-84 46t-67.5 69.5t-42 99t-15.5 131.5z" />
<glyph unicode="&#xb7;" horiz-adv-x="526" d="M166 623q0 39 29.5 69.5t68.5 30.5t67.5 -30.5t28.5 -69.5t-28.5 -69t-67.5 -30q-40 0 -69 29.5t-29 69.5z" />
<glyph unicode="&#xb8;" horiz-adv-x="655" d="M139 -233q52 -27 101 -27q56 0 93.5 32t37.5 87q0 80 -84 145q65 -27 109 -72t44 -106q0 -67 -53 -103t-123 -36q-74 0 -125 32v48z" />
<glyph unicode="&#xb9;" horiz-adv-x="665" d="M113 1417q146 27 239 107h64v-738h168v-69l-469 2v67h221v648q-103 -44 -221 -66z" />
<glyph unicode="&#xba;" horiz-adv-x="870" d="M117 1024q0 144 87 234t230 90q144 0 232 -90.5t88 -233.5q0 -144 -88 -235t-232 -91q-143 0 -230 91t-87 235zM195 1024q0 -111 65 -186.5t174 -75.5q112 0 176 74.5t64 187.5t-64 187.5t-176 74.5q-110 0 -174.5 -75t-64.5 -187z" />
<glyph unicode="&#xbb;" horiz-adv-x="950" d="M141 195l244 337l-244 336l58 45l268 -360v-41l-268 -360zM526 195l246 337l-246 336l58 45l268 -360v-41l-268 -360z" />
<glyph unicode="&#xbc;" horiz-adv-x="1918" d="M152 1178v57q155 30 237 98h64v-805h-82v715q-107 -47 -219 -65zM424 31l942 1302h59l-940 -1302h-61zM1149 281q0 14 2 24l66 133q94 186 106 396l66 -3q-13 -255 -172 -538h368v346h76v-346h131v-66h-131v-196h-76v196h-434q0 7 -1 23.5t-1 30.5z" />
<glyph unicode="&#xbd;" horiz-adv-x="1945" d="M152 1178v57q155 30 237 98h64v-805h-82v715q-107 -47 -219 -65zM424 31l942 1302h59l-940 -1302h-61zM1188 715q52 63 123 99t151 36q120 0 200.5 -62t80.5 -178q0 -36 -14 -75t-34.5 -73t-54.5 -73t-64 -68.5t-73 -65.5t-71 -58.5t-69.5 -54t-57.5 -44.5h473v-67h-578 v63q14 11 54.5 42.5t69.5 54t73.5 60.5t76.5 68.5t68.5 70.5t59.5 73.5t38 71t15 69.5q0 81 -59 128.5t-142 47.5q-122 0 -207 -102z" />
<glyph unicode="&#xbe;" horiz-adv-x="1945" d="M125 657l74 29q70 -102 225 -102q83 0 143 44t60 124q0 31 -9 55.5t-21.5 40.5t-35.5 27t-41 16.5t-49.5 8t-48.5 3t-50 0.5h-10v68q41 0 68 1.5t64 10t58.5 23.5t37.5 44.5t16 71.5q0 78 -59 117t-141 39q-133 0 -209 -88l-58 37q102 123 275 123q51 0 98 -12t87 -36 t63.5 -65.5t23.5 -95.5q0 -66 -38.5 -110.5t-108.5 -84.5q81 -30 127.5 -77t46.5 -124q0 -58 -25 -103.5t-67 -73t-92.5 -42t-104.5 -14.5q-211 0 -299 145zM481 31l942 1302h60l-940 -1302h-62zM1149 281q0 14 2 24l66 133q94 186 106 396l66 -3q-13 -255 -172 -538h368 v346h76v-346h131v-66h-131v-196h-76v196h-434q0 7 -1 23.5t-1 30.5z" />
<glyph unicode="&#xbf;" horiz-adv-x="1048" d="M143 84q0 72 23.5 133t63.5 105t95 77t116.5 52t129.5 28v139h111v-231q-75 8 -145.5 -7t-128.5 -50.5t-93.5 -97.5t-35.5 -142q0 -128 87 -201t218 -73q175 0 311 114l68 -82q-180 -143 -392 -143q-118 0 -213.5 42t-155 129.5t-59.5 207.5zM549 887v147h158v-147h-158z " />
<glyph unicode="&#xc0;" horiz-adv-x="1366" d="M68 31l530 1302h170l532 -1302h-149l-145 379h-656l-147 -379h-135zM391 516h576l-285 748zM492 1696l106 18q54 -95 154 -211l-31 -24q-152 99 -229 217z" />
<glyph unicode="&#xc1;" horiz-adv-x="1366" d="M68 31l530 1302h170l532 -1302h-149l-145 379h-656l-147 -379h-135zM391 516h576l-285 748zM625 1505q88 97 153 209l107 -18q-38 -60 -101.5 -118t-130.5 -99z" />
<glyph unicode="&#xc2;" horiz-adv-x="1366" d="M68 31l530 1302h170l532 -1302h-149l-145 379h-656l-147 -379h-135zM391 516h576l-285 748zM393 1528q116 81 232 184h114q116 -103 232 -184l-23 -41q-147 56 -266 168q-120 -114 -264 -168z" />
<glyph unicode="&#xc3;" horiz-adv-x="1366" d="M68 31l530 1302h170l532 -1302h-149l-145 379h-656l-147 -379h-135zM391 516h576l-285 748zM395 1540q25 54 65 90.5t93 36.5q43 0 130.5 -39t135.5 -39q73 0 139 66l27 -19q-25 -54 -65 -90.5t-93 -36.5q-47 0 -132.5 39t-131.5 39q-76 0 -141 -65z" />
<glyph unicode="&#xc4;" horiz-adv-x="1366" d="M68 31l530 1302h170l532 -1302h-149l-145 379h-656l-147 -379h-135zM391 516h576l-285 748zM420 1511v99h94v-99h-94zM850 1511v99h92v-99h-92z" />
<glyph unicode="&#xc5;" horiz-adv-x="1357" d="M63 31l523 1280q-103 69 -103 159q0 78 59 133.5t138 55.5t139 -55.5t60 -133.5q0 -91 -107 -159l524 -1280h-149l-146 379h-655l-147 -379h-136zM387 516h576l-285 748zM532 1468q0 -61 44 -104t106 -43q61 0 103 42.5t42 104.5q0 61 -42 106.5t-103 45.5 q-63 0 -106.5 -44.5t-43.5 -107.5z" />
<glyph unicode="&#xc6;" horiz-adv-x="1861" d="M49 31l668 1302h997v-114h-655v-447h557v-104h-557v-523h676v-114h-809v379h-545l-195 -379h-137zM432 516h494v711h-135z" />
<glyph unicode="&#xc7;" horiz-adv-x="1378" d="M131 682q0 141 44 264.5t124 215t200 144t263 52.5q312 0 493 -236l-100 -69q-68 92 -170 141t-219 49q-118 0 -213.5 -44.5t-156.5 -121.5t-93.5 -177.5t-32.5 -215.5q0 -114 32 -215t92 -179.5t155 -124.5t213 -46t221 51.5t172 146.5l107 -67q-165 -223 -531 -248 q31 -25 44 -36.5t37.5 -37t35 -50.5t10.5 -52q0 -66 -53 -102.5t-123 -36.5q-74 0 -125 32v48q52 -27 100 -27q55 0 93 32.5t38 86.5q0 77 -90 151q-264 26 -415.5 213.5t-151.5 458.5z" />
<glyph unicode="&#xc8;" horiz-adv-x="1269" d="M215 31v1302h905v-114h-774v-447h674v-104h-674v-523h795v-114h-926zM481 1696l107 18q56 -98 153 -211l-30 -24q-154 100 -230 217z" />
<glyph unicode="&#xc9;" horiz-adv-x="1269" d="M215 31v1302h905v-114h-774v-447h674v-104h-674v-523h795v-114h-926zM590 1505q88 97 153 209l107 -18q-38 -60 -101.5 -118t-130.5 -99z" />
<glyph unicode="&#xca;" horiz-adv-x="1269" d="M215 31v1302h905v-114h-774v-447h674v-104h-674v-523h795v-114h-926zM401 1528q116 81 232 184h115q119 -106 231 -184l-23 -41q-147 56 -266 168q-120 -114 -264 -168z" />
<glyph unicode="&#xcb;" horiz-adv-x="1269" d="M215 31v1302h905v-114h-774v-447h674v-104h-674v-523h795v-114h-926zM418 1511v99h94v-99h-94zM848 1511v99h92v-99h-92z" />
<glyph unicode="&#xcc;" horiz-adv-x="559" d="M88 1696l107 18q56 -98 153 -211l-31 -24q-152 99 -229 217zM215 31v1302h129v-1302h-129z" />
<glyph unicode="&#xcd;" horiz-adv-x="559" d="M215 31v1302h129v-1302h-129zM215 1505q91 101 154 209l106 -18q-38 -60 -101 -118.5t-130 -98.5z" />
<glyph unicode="&#xce;" horiz-adv-x="559" d="M-10 1528q112 78 231 184h115q119 -106 231 -184l-22 -41q-147 56 -266 168q-119 -113 -265 -168zM215 31v1302h129v-1302h-129z" />
<glyph unicode="&#xcf;" horiz-adv-x="559" d="M18 1511v99h95v-99h-95zM215 31v1302h129v-1302h-129zM449 1511v99h92v-99h-92z" />
<glyph unicode="&#xd0;" horiz-adv-x="1486" d="M2 649v96h223v588h508q292 0 456.5 -178.5t164.5 -472.5t-164.5 -472.5t-456.5 -178.5h-508v618h-223zM356 145h375q119 0 211.5 41t151 113.5t88.5 169.5t30 213t-30 213t-88.5 169.5t-151 113.5t-211.5 41h-375v-474h377v-96h-377v-504z" />
<glyph unicode="&#xd1;" horiz-adv-x="1492" d="M215 31v1302h199l741 -1173v1173h123v-1302h-178l-762 1200v-1200h-123zM453 1669l24 41q140 -53 264 -164q116 107 267 164l22 -39q-127 -91 -231 -186h-115q-119 106 -231 184z" />
<glyph unicode="&#xd2;" horiz-adv-x="1525" d="M127 682q0 142 45 265.5t125.5 214.5t200.5 143.5t264 52.5t264.5 -52t201.5 -143t126 -215t45 -266t-45 -266t-126 -215t-201.5 -143t-264.5 -52t-264 52.5t-200.5 143.5t-125.5 214.5t-45 265.5zM266 682q0 -115 32.5 -215.5t93.5 -177.5t156.5 -121.5t213.5 -44.5 q157 0 271 77.5t169 202t55 279.5t-55 279t-169 201t-271 77q-118 0 -213.5 -44t-156.5 -121t-93.5 -177t-32.5 -215zM586 1696l106 18q54 -95 154 -211l-31 -24q-152 99 -229 217z" />
<glyph unicode="&#xd3;" horiz-adv-x="1525" d="M127 682q0 142 45 265.5t125.5 214.5t200.5 143.5t264 52.5t264.5 -52t201.5 -143t126 -215t45 -266t-45 -266t-126 -215t-201.5 -143t-264.5 -52t-264 52.5t-200.5 143.5t-125.5 214.5t-45 265.5zM266 682q0 -115 32.5 -215.5t93.5 -177.5t156.5 -121.5t213.5 -44.5 q157 0 271 77.5t169 202t55 279.5t-55 279t-169 201t-271 77q-118 0 -213.5 -44t-156.5 -121t-93.5 -177t-32.5 -215zM670 1505q88 97 153 209l107 -18q-38 -60 -101.5 -118t-130.5 -99z" />
<glyph unicode="&#xd4;" horiz-adv-x="1525" d="M127 682q0 142 45 265.5t125.5 214.5t200.5 143.5t264 52.5t264.5 -52t201.5 -143t126 -215t45 -266t-45 -266t-126 -215t-201.5 -143t-264.5 -52t-264 52.5t-200.5 143.5t-125.5 214.5t-45 265.5zM266 682q0 -115 32.5 -215.5t93.5 -177.5t156.5 -121.5t213.5 -44.5 q157 0 271 77.5t169 202t55 279.5t-55 279t-169 201t-271 77q-118 0 -213.5 -44t-156.5 -121t-93.5 -177t-32.5 -215zM473 1528q116 81 232 184h114q116 -103 232 -184l-23 -41q-147 56 -266 168q-120 -114 -264 -168z" />
<glyph unicode="&#xd5;" horiz-adv-x="1525" d="M127 682q0 142 45 265.5t125.5 214.5t200.5 143.5t264 52.5t264.5 -52t201.5 -143t126 -215t45 -266t-45 -266t-126 -215t-201.5 -143t-264.5 -52t-264 52.5t-200.5 143.5t-125.5 214.5t-45 265.5zM266 682q0 -115 32.5 -215.5t93.5 -177.5t156.5 -121.5t213.5 -44.5 q157 0 271 77.5t169 202t55 279.5t-55 279t-169 201t-271 77q-118 0 -213.5 -44t-156.5 -121t-93.5 -177t-32.5 -215zM467 1540q25 54 65 90.5t93 36.5q43 0 130.5 -39t135.5 -39q73 0 139 66l27 -19q-25 -54 -65 -90.5t-93 -36.5q-47 0 -132.5 39t-131.5 39q-76 0 -141 -65 z" />
<glyph unicode="&#xd6;" horiz-adv-x="1525" d="M127 682q0 142 45 265.5t125.5 214.5t200.5 143.5t264 52.5t264.5 -52t201.5 -143t126 -215t45 -266t-45 -266t-126 -215t-201.5 -143t-264.5 -52t-264 52.5t-200.5 143.5t-125.5 214.5t-45 265.5zM266 682q0 -115 32.5 -215.5t93.5 -177.5t156.5 -121.5t213.5 -44.5 q157 0 271 77.5t169 202t55 279.5t-55 279t-169 201t-271 77q-118 0 -213.5 -44t-156.5 -121t-93.5 -177t-32.5 -215zM563 1503q92 102 154 211l102 -16q-37 -60 -99.5 -118t-129.5 -99zM883 1503q90 104 155 211l101 -16q-36 -60 -99 -118t-129 -99z" />
<glyph unicode="&#xd7;" d="M166 264l360 359l-360 358l67 70l361 -361l358 361l68 -70l-358 -358l358 -359l-68 -69l-358 360l-361 -360z" />
<glyph unicode="&#xd8;" horiz-adv-x="1525" d="M127 682q0 142 45 265.5t125.5 214.5t200.5 143.5t264 52.5q194 0 364 -107l66 92l45 -32l-68 -92q113 -103 171.5 -242t58.5 -295q0 -142 -45 -266t-126 -215t-201.5 -143t-264.5 -52q-200 0 -365 107l-65 -93l-45 31l67 92q-112 102 -169.5 242t-57.5 297zM266 682 q0 -251 160 -432l629 899q-147 90 -293 90q-118 0 -213.5 -44t-156.5 -121t-93.5 -177t-32.5 -215zM469 215q137 -92 293 -92q157 0 271 77.5t169 202t55 279.5q0 246 -159 430z" />
<glyph unicode="&#xd9;" horiz-adv-x="1454" d="M199 512v821h129v-821q0 -179 108.5 -284t288.5 -105q179 0 290 105.5t111 283.5v821h129v-821q0 -231 -148.5 -368.5t-381.5 -137.5q-234 0 -380 137t-146 369zM541 1696l106 18q54 -95 154 -211l-31 -24q-152 99 -229 217z" />
<glyph unicode="&#xda;" horiz-adv-x="1454" d="M199 512v821h129v-821q0 -179 108.5 -284t288.5 -105q179 0 290 105.5t111 283.5v821h129v-821q0 -231 -148.5 -368.5t-381.5 -137.5q-234 0 -380 137t-146 369zM676 1505q88 97 153 209l107 -18q-38 -60 -101 -118.5t-130 -98.5z" />
<glyph unicode="&#xdb;" horiz-adv-x="1454" d="M199 512v821h129v-821q0 -179 108.5 -284t288.5 -105q179 0 290 105.5t111 283.5v821h129v-821q0 -231 -148.5 -368.5t-381.5 -137.5q-234 0 -380 137t-146 369zM438 1528q116 81 232 184h114q116 -103 232 -184l-23 -41q-147 56 -266 168q-120 -114 -264 -168z" />
<glyph unicode="&#xdc;" horiz-adv-x="1263" d="M188 434v656h117v-656q0 -153 87 -241.5t239 -88.5q150 0 238.5 89.5t88.5 240.5v656h119v-656q0 -201 -121.5 -314.5t-324.5 -113.5t-323 113t-120 315zM369 1253v99h94v-99h-94zM799 1253v99h92v-99h-92z" />
<glyph unicode="&#xdd;" horiz-adv-x="1257" d="M68 1333h153l412 -661l416 661h143l-498 -768v-534h-131v532zM561 1505q91 101 154 209l106 -18q-38 -60 -101 -118.5t-130 -98.5z" />
<glyph unicode="&#xde;" horiz-adv-x="1298" d="M215 31v1302h129v-205q37 0 101.5 2t112.5 3t113.5 0t115.5 -6t108.5 -17t100.5 -31t84 -49.5t68 -71t42 -98t16 -127.5t-16 -127t-42 -97.5t-67.5 -71t-84.5 -48.5t-101 -30t-108 -16t-115.5 -5t-114 0.5t-112 3.5t-101.5 2v-313h-129zM344 459h412q144 0 228.5 68.5 t84.5 207.5q0 136 -87 207.5t-226 71.5h-412v-555z" />
<glyph unicode="&#xdf;" horiz-adv-x="1265" d="M190 31v1061q0 89 36 160t97 114t137.5 65.5t162.5 22.5q80 0 153.5 -20t135.5 -59t99.5 -105t37.5 -150q0 -49 -13.5 -91t-34.5 -73.5t-55.5 -61.5t-67.5 -51t-79 -46q77 -24 136.5 -55t109 -76t76 -109t26.5 -143q0 -197 -124 -302.5t-325 -105.5q-102 0 -190 29l24 98 q71 -29 156 -29q150 0 242 86.5t92 235.5q0 60 -13.5 107t-36 79t-58 55t-71 36t-85 20.5t-91 9.5t-96.5 2v94q355 0 355 267q0 129 -89 196.5t-223 67.5q-129 0 -220 -72t-91 -198v-1059h-113z" />
<glyph unicode="&#xe0;" horiz-adv-x="1161" d="M109 299q0 79 30.5 134.5t80 83t113 46t129.5 25t129.5 18.5t113 27.5t80 51.5t30.5 91q0 52 -25 90t-67 58t-87 29.5t-93 9.5q-160 0 -301 -86v104q78 53 138.5 65.5t174.5 12.5q116 0 196.5 -33t120 -89t58.5 -128.5t18.5 -153t-6 -160.5t-10 -152.5t1.5 -128.5 t34.5 -89t82.5 -33l22 2l2 -74q-30 -6 -61 -6q-47 0 -81.5 18t-55.5 51t-32 69t-18 84q-78 -110 -171.5 -170t-215.5 -60q-147 0 -239 75t-92 218zM229 303q0 -104 72 -157.5t180 -53.5q149 0 243.5 85.5t94.5 232.5v272q-30 -38 -49 -59.5t-53 -46.5t-68 -33 q-31 -8 -84.5 -15.5t-94.5 -13.5t-88.5 -20.5t-79 -36t-52.5 -61t-21 -93.5zM365 1438l106 18q54 -95 154 -211l-31 -24q-152 99 -229 217z" />
<glyph unicode="&#xe1;" horiz-adv-x="1161" d="M109 299q0 79 30.5 134.5t80 83t113 46t129.5 25t129.5 18.5t113 27.5t80 51.5t30.5 91q0 52 -25 90t-67 58t-87 29.5t-93 9.5q-160 0 -301 -86v104q78 53 138.5 65.5t174.5 12.5q116 0 196.5 -33t120 -89t58.5 -128.5t18.5 -153t-6 -160.5t-10 -152.5t1.5 -128.5 t34.5 -89t82.5 -33l22 2l2 -74q-30 -6 -61 -6q-47 0 -81.5 18t-55.5 51t-32 69t-18 84q-78 -110 -171.5 -170t-215.5 -60q-147 0 -239 75t-92 218zM229 303q0 -104 72 -157.5t180 -53.5q149 0 243.5 85.5t94.5 232.5v272q-30 -38 -49 -59.5t-53 -46.5t-68 -33 q-31 -8 -84.5 -15.5t-94.5 -13.5t-88.5 -20.5t-79 -36t-52.5 -61t-21 -93.5zM496 1247q88 97 153 209l107 -18q-38 -60 -101.5 -118t-130.5 -99z" />
<glyph unicode="&#xe2;" horiz-adv-x="1161" d="M109 299q0 79 30.5 134.5t80 83t113 46t129.5 25t129.5 18.5t113 27.5t80 51.5t30.5 91q0 52 -25 90t-67 58t-87 29.5t-93 9.5q-160 0 -301 -86v104q78 53 138.5 65.5t174.5 12.5q116 0 196.5 -33t120 -89t58.5 -128.5t18.5 -153t-6 -160.5t-10 -152.5t1.5 -128.5 t34.5 -89t82.5 -33l22 2l2 -74q-30 -6 -61 -6q-47 0 -81.5 18t-55.5 51t-32 69t-18 84q-78 -110 -171.5 -170t-215.5 -60q-147 0 -239 75t-92 218zM229 303q0 -104 72 -157.5t180 -53.5q149 0 243.5 85.5t94.5 232.5v272q-30 -38 -49 -59.5t-53 -46.5t-68 -33 q-31 -8 -84.5 -15.5t-94.5 -13.5t-88.5 -20.5t-79 -36t-52.5 -61t-21 -93.5zM250 1270q112 78 231 184h115q119 -106 231 -184l-22 -41q-147 56 -266 168q-119 -113 -265 -168z" />
<glyph unicode="&#xe3;" horiz-adv-x="1161" d="M109 299q0 79 30.5 134.5t80 83t113 46t129.5 25t129.5 18.5t113 27.5t80 51.5t30.5 91q0 52 -25 90t-67 58t-87 29.5t-93 9.5q-160 0 -301 -86v104q78 53 138.5 65.5t174.5 12.5q116 0 196.5 -33t120 -89t58.5 -128.5t18.5 -153t-6 -160.5t-10 -152.5t1.5 -128.5 t34.5 -89t82.5 -33l22 2l2 -74q-30 -6 -61 -6q-47 0 -81.5 18t-55.5 51t-32 69t-18 84q-78 -110 -171.5 -170t-215.5 -60q-147 0 -239 75t-92 218zM229 303q0 -104 72 -157.5t180 -53.5q149 0 243.5 85.5t94.5 232.5v272q-30 -38 -49 -59.5t-53 -46.5t-68 -33 q-31 -8 -84.5 -15.5t-94.5 -13.5t-88.5 -20.5t-79 -36t-52.5 -61t-21 -93.5zM252 1282q25 54 65 90.5t93 36.5q43 0 130.5 -39t135.5 -39q73 0 139 66l27 -19q-25 -54 -65 -90.5t-93 -36.5q-47 0 -132.5 39t-131.5 39q-76 0 -141 -65z" />
<glyph unicode="&#xe4;" horiz-adv-x="1161" d="M109 299q0 79 30.5 134.5t80 83t113 46t129.5 25t129.5 18.5t113 27.5t80 51.5t30.5 91q0 52 -25 90t-67 58t-87 29.5t-93 9.5q-160 0 -301 -86v104q78 53 138.5 65.5t174.5 12.5q116 0 196.5 -33t120 -89t58.5 -128.5t18.5 -153t-6 -160.5t-10 -152.5t1.5 -128.5 t34.5 -89t82.5 -33l22 2l2 -74q-30 -6 -61 -6q-47 0 -81.5 18t-55.5 51t-32 69t-18 84q-78 -110 -171.5 -170t-215.5 -60q-147 0 -239 75t-92 218zM229 303q0 -104 72 -157.5t180 -53.5q149 0 243.5 85.5t94.5 232.5v272q-30 -38 -49 -59.5t-53 -46.5t-68 -33 q-31 -8 -84.5 -15.5t-94.5 -13.5t-88.5 -20.5t-79 -36t-52.5 -61t-21 -93.5zM287 1253v99h94v-99h-94zM717 1253v99h92v-99h-92z" />
<glyph unicode="&#xe5;" horiz-adv-x="1161" d="M109 299q0 79 30.5 134.5t80 83t113 46t129.5 25t129.5 18.5t113 27.5t80 51.5t30.5 91q0 52 -25 90t-67 58t-87 29.5t-93 9.5q-160 0 -301 -86v104q78 53 138.5 65.5t174.5 12.5q116 0 196.5 -33t120 -89t58.5 -128.5t18.5 -153t-6 -160.5t-10 -152.5t1.5 -128.5 t34.5 -89t82.5 -33l22 2l2 -74q-30 -6 -61 -6q-47 0 -81.5 18t-55.5 51t-32 69t-18 84q-78 -110 -171.5 -170t-215.5 -60q-147 0 -239 75t-92 218zM229 303q0 -104 72 -157.5t180 -53.5q149 0 243.5 85.5t94.5 232.5v272q-30 -38 -49 -59.5t-53 -46.5t-68 -33 q-31 -8 -84.5 -15.5t-94.5 -13.5t-88.5 -20.5t-79 -36t-52.5 -61t-21 -93.5zM360 1391q0 76 55.5 128t131.5 52t131 -52t55 -128t-55 -127.5t-131 -51.5t-131.5 52t-55.5 127zM399 1391q0 -60 44 -104t104 -44t102.5 44t42.5 104t-42.5 103.5t-102.5 43.5t-104 -43.5 t-44 -103.5z" />
<glyph unicode="&#xe6;" horiz-adv-x="1878" d="M109 301q0 70 24 121.5t65 80.5t94 48t111.5 28t117 16.5t111.5 18t94 28t65 51.5t24 83q0 51 -25 89t-66.5 58.5t-86.5 30t-92 9.5q-156 0 -305 -86l-2 104q71 51 136 64.5t173 13.5q254 0 362 -209q80 102 172 155.5t211 53.5q143 0 254.5 -65.5t169.5 -180t51 -254.5 l-2 -39h-839q8 -184 109 -297.5t282 -113.5q192 0 309 114l88 -49q-176 -168 -399 -168q-278 0 -436 248q-71 -124 -169.5 -186t-236.5 -62q-73 0 -136.5 17t-115.5 51t-82 92.5t-30 134.5zM229 303q0 -104 72 -157.5t180 -53.5q149 0 243.5 85.5t94.5 232.5v272 q-30 -38 -49 -59.5t-53 -46.5t-68 -33q-31 -8 -84.5 -15.5t-94.5 -13.5t-88.5 -20.5t-79 -36t-52.5 -61t-21 -93.5zM930 596h719q-14 166 -107 268.5t-254 102.5q-158 0 -251.5 -104t-106.5 -267z" />
<glyph unicode="&#xe7;" horiz-adv-x="1105" d="M123 532q0 147 57 265.5t169 190t259 71.5q113 0 212.5 -48t168.5 -137l-84 -67q-51 72 -126.5 111.5t-164.5 39.5q-115 0 -199.5 -61.5t-124.5 -156.5t-40 -208q0 -83 23.5 -158.5t67.5 -135.5t114.5 -96t156.5 -36q89 0 165 38.5t130 109.5l88 -61q-127 -162 -405 -191 q31 -26 43 -37t36.5 -37.5t35 -51t10.5 -50.5q0 -67 -53 -103t-123 -36q-74 0 -125 32v48q52 -27 100 -27q55 0 93 32.5t38 86.5q0 78 -90 149q-135 16 -234 90.5t-148.5 186.5t-49.5 247z" />
<glyph unicode="&#xe8;" horiz-adv-x="1200" d="M121 528q0 148 58 268t171 191.5t262 71.5q217 0 353 -143.5t125 -356.5l-3 -39h-839q8 -185 108.5 -298t282.5 -113t295 110l98 -53q-80 -77 -182.5 -118.5t-214.5 -41.5q-235 0 -374.5 143.5t-139.5 378.5zM252 596h717q-14 165 -106 268t-253 103q-158 0 -251.5 -104 t-106.5 -267zM418 1438l106 18q54 -95 154 -211l-31 -24q-152 99 -229 217z" />
<glyph unicode="&#xe9;" horiz-adv-x="1200" d="M121 528q0 148 58 268t171 191.5t262 71.5q217 0 353 -143.5t125 -356.5l-3 -39h-839q8 -185 108.5 -298t282.5 -113t295 110l98 -53q-80 -77 -182.5 -118.5t-214.5 -41.5q-235 0 -374.5 143.5t-139.5 378.5zM252 596h717q-14 165 -106 268t-253 103q-158 0 -251.5 -104 t-106.5 -267zM547 1247q88 97 153 209l107 -18q-38 -60 -101.5 -118t-130.5 -99z" />
<glyph unicode="&#xea;" horiz-adv-x="1200" d="M121 528q0 148 58 268t171 191.5t262 71.5q217 0 353 -143.5t125 -356.5l-3 -39h-839q8 -185 108.5 -298t282.5 -113t295 110l98 -53q-80 -77 -182.5 -118.5t-214.5 -41.5q-235 0 -374.5 143.5t-139.5 378.5zM252 596h717q-14 165 -106 268t-253 103q-158 0 -251.5 -104 t-106.5 -267zM315 1270q116 81 232 184h115q119 -106 231 -184l-23 -41q-147 56 -266 168q-120 -114 -264 -168z" />
<glyph unicode="&#xeb;" horiz-adv-x="1200" d="M121 528q0 148 58 268t171 191.5t262 71.5q217 0 353 -143.5t125 -356.5l-3 -39h-839q8 -185 108.5 -298t282.5 -113t295 110l98 -53q-80 -77 -182.5 -118.5t-214.5 -41.5q-235 0 -374.5 143.5t-139.5 378.5zM252 596h717q-14 165 -106 268t-253 103q-158 0 -251.5 -104 t-106.5 -267zM346 1253v99h94v-99h-94zM776 1253v99h92v-99h-92z" />
<glyph unicode="&#xec;" horiz-adv-x="497" d="M188 1247q91 101 154 209l107 -18q-38 -60 -101.5 -118t-130.5 -99zM190 31v1003h117v-1003h-117z" />
<glyph unicode="&#xed;" horiz-adv-x="497" d="M51 1438l107 18q56 -98 153 -211l-30 -24q-154 100 -230 217zM190 31v1003h117v-1003h-117z" />
<glyph unicode="&#xee;" horiz-adv-x="497" d="M-41 1270q112 78 231 184h115q116 -103 232 -184l-23 -41q-147 56 -266 168q-120 -114 -264 -168zM190 31v1003h117v-1003h-117z" />
<glyph unicode="&#xef;" horiz-adv-x="497" d="M25 1253v99h94v-99h-94zM190 31v1003h117v-1003h-117zM379 1253v99h94v-99h-94z" />
<glyph unicode="&#xf0;" horiz-adv-x="1261" d="M125 494q0 136 54 246t158 175.5t241 65.5q63 0 123 -21t117 -62.5t97 -77.5t93 -91q-75 163 -150 280.5t-182 217.5l-248 -119l-14 31l227 108q-90 71 -182 125l73 74q129 -74 218 -154l237 111l12 -29l-219 -104q336 -333 336 -713q0 -120 -31 -219.5t-91.5 -174 t-156.5 -116t-219 -41.5q-217 0 -355 136t-138 352zM252 494q0 -171 99 -279.5t267 -108.5q172 0 275.5 107.5t103.5 280.5q0 171 -105 280t-276 109q-168 0 -266 -109.5t-98 -279.5z" />
<glyph unicode="&#xf1;" horiz-adv-x="1222" d="M190 31v1003h117v-246q40 60 77.5 103.5t86 84.5t107 62t124.5 21q165 0 253.5 -102.5t88.5 -270.5v-655h-116v614q0 141 -65.5 224t-203.5 83q-154 0 -253 -103.5t-99 -258.5v-559h-117zM354 1282q25 54 65 90.5t93 36.5q43 0 130.5 -39t135.5 -39q74 0 140 66l26 -19 q-25 -54 -65 -90.5t-93 -36.5q-47 0 -132.5 39t-131.5 39q-76 0 -141 -65z" />
<glyph unicode="&#xf2;" horiz-adv-x="1228" d="M121 530q0 150 57.5 269.5t170.5 189.5t265 70q151 0 264.5 -70.5t171.5 -190t58 -268.5q0 -111 -34.5 -207t-97 -166.5t-156 -110.5t-206.5 -40q-151 0 -264 69t-171 187t-58 268zM248 530q0 -84 23.5 -160t68 -135.5t115.5 -95t159 -35.5q116 0 201 61.5t124.5 156 t39.5 208.5q0 85 -23 161t-67.5 136t-115 95.5t-159.5 35.5t-160 -35.5t-115 -95.5t-67.5 -136t-23.5 -161zM442 1438l107 18q56 -98 153 -211l-30 -24q-154 100 -230 217z" />
<glyph unicode="&#xf3;" horiz-adv-x="1228" d="M121 530q0 150 57.5 269.5t170.5 189.5t265 70q151 0 264.5 -70.5t171.5 -190t58 -268.5q0 -111 -34.5 -207t-97 -166.5t-156 -110.5t-206.5 -40q-151 0 -264 69t-171 187t-58 268zM248 530q0 -84 23.5 -160t68 -135.5t115.5 -95t159 -35.5q116 0 201 61.5t124.5 156 t39.5 208.5q0 85 -23 161t-67.5 136t-115 95.5t-159.5 35.5t-160 -35.5t-115 -95.5t-67.5 -136t-23.5 -161zM504 1247q88 97 153 209l107 -18q-38 -60 -101.5 -118t-130.5 -99z" />
<glyph unicode="&#xf4;" horiz-adv-x="1228" d="M121 530q0 150 57.5 269.5t170.5 189.5t265 70q151 0 264.5 -70.5t171.5 -190t58 -268.5q0 -111 -34.5 -207t-97 -166.5t-156 -110.5t-206.5 -40q-151 0 -264 69t-171 187t-58 268zM248 530q0 -84 23.5 -160t68 -135.5t115.5 -95t159 -35.5q116 0 201 61.5t124.5 156 t39.5 208.5q0 85 -23 161t-67.5 136t-115 95.5t-159.5 35.5t-160 -35.5t-115 -95.5t-67.5 -136t-23.5 -161zM326 1270q112 78 231 184h115q119 -106 231 -184l-22 -41q-149 56 -267 168q-120 -114 -264 -168z" />
<glyph unicode="&#xf5;" horiz-adv-x="1228" d="M121 530q0 150 57.5 269.5t170.5 189.5t265 70q151 0 264.5 -70.5t171.5 -190t58 -268.5q0 -111 -34.5 -207t-97 -166.5t-156 -110.5t-206.5 -40q-151 0 -264 69t-171 187t-58 268zM248 530q0 -84 23.5 -160t68 -135.5t115.5 -95t159 -35.5q116 0 201 61.5t124.5 156 t39.5 208.5q0 85 -23 161t-67.5 136t-115 95.5t-159.5 35.5t-160 -35.5t-115 -95.5t-67.5 -136t-23.5 -161zM319 1282q25 54 65 90.5t93 36.5q43 0 130.5 -39t135.5 -39q74 0 140 66l26 -19q-25 -54 -65 -90.5t-92 -36.5q-47 0 -133 39t-132 39q-76 0 -141 -65z" />
<glyph unicode="&#xf6;" horiz-adv-x="1228" d="M121 530q0 150 57.5 269.5t170.5 189.5t265 70q151 0 264.5 -70.5t171.5 -190t58 -268.5q0 -111 -34.5 -207t-97 -166.5t-156 -110.5t-206.5 -40q-151 0 -264 69t-171 187t-58 268zM248 530q0 -84 23.5 -160t68 -135.5t115.5 -95t159 -35.5q116 0 201 61.5t124.5 156 t39.5 208.5q0 85 -23 161t-67.5 136t-115 95.5t-159.5 35.5t-160 -35.5t-115 -95.5t-67.5 -136t-23.5 -161zM354 1253v99h95v-99h-95zM784 1253v99h93v-99h-93z" />
<glyph unicode="&#xf7;" d="M137 575v95h914v-95h-914zM498 240q0 38 29 68t67 30t67 -30t29 -68t-29 -67.5t-67 -29.5t-67 29.5t-29 67.5zM498 1006q0 38 29 67t67 29t67 -29t29 -67q0 -40 -27.5 -69.5t-68.5 -29.5t-68.5 29.5t-27.5 69.5z" />
<glyph unicode="&#xf8;" horiz-adv-x="1228" d="M121 530q0 230 133.5 379.5t359.5 149.5q143 0 281 -82l47 65l41 -28l-47 -66q172 -166 172 -418q0 -111 -34.5 -207t-97 -166.5t-156 -110.5t-206.5 -40q-146 0 -284 80l-43 -66l-41 29l47 66q-172 166 -172 415zM248 530q0 -176 108 -317l475 674q-109 74 -217 74 q-72 0 -132.5 -23.5t-103 -64t-72.5 -95.5t-44 -117.5t-14 -130.5zM395 176q109 -74 219 -74q116 0 201 62t124.5 157t39.5 209q0 178 -109 320z" />
<glyph unicode="&#xf9;" horiz-adv-x="1222" d="M178 377v657h117v-616q0 -141 64 -224t202 -83q156 0 255 103t99 259v561h117v-1003h-117v239q-41 -59 -78.5 -101t-86.5 -82t-107 -60.5t-123 -20.5q-165 0 -253.5 101.5t-88.5 269.5zM395 1438l107 18q56 -98 153 -211l-30 -24q-154 100 -230 217z" />
<glyph unicode="&#xfa;" horiz-adv-x="1222" d="M178 377v657h117v-616q0 -141 64 -224t202 -83q156 0 255 103t99 259v561h117v-1003h-117v239q-41 -59 -78.5 -101t-86.5 -82t-107 -60.5t-123 -20.5q-165 0 -253.5 101.5t-88.5 269.5zM573 1247q91 101 154 209l107 -18q-38 -60 -101.5 -118t-130.5 -99z" />
<glyph unicode="&#xfb;" horiz-adv-x="1222" d="M178 377v657h117v-616q0 -141 64 -224t202 -83q156 0 255 103t99 259v561h117v-1003h-117v239q-41 -59 -78.5 -101t-86.5 -82t-107 -60.5t-123 -20.5q-165 0 -253.5 101.5t-88.5 269.5zM315 1270q116 81 232 184h115q119 -106 231 -184l-23 -41q-147 56 -266 168 q-120 -114 -264 -168z" />
<glyph unicode="&#xfc;" horiz-adv-x="1222" d="M178 377v657h117v-616q0 -141 64 -224t202 -83q156 0 255 103t99 259v561h117v-1003h-117v239q-41 -59 -78.5 -101t-86.5 -82t-107 -60.5t-123 -20.5q-165 0 -253.5 101.5t-88.5 269.5zM342 1253v99h94v-99h-94zM772 1253v99h92v-99h-92z" />
<glyph unicode="&#xfd;" horiz-adv-x="1095" d="M74 1034h137l362 -882l322 882h125l-410 -1073q-27 -73 -52 -120.5t-64 -94t-94.5 -69.5t-127.5 -23q-104 0 -176 45l47 78q67 -29 117 -29q41 0 76 15t58 36.5t45 56.5t35 63.5t30 69.5l6 15zM508 1247q91 101 154 209l106 -18q-38 -60 -101 -118.5t-130 -98.5z" />
<glyph unicode="&#xfe;" horiz-adv-x="1296" d="M190 -326v1758h117v-641q41 59 80.5 103t90 83.5t110.5 60.5t127 21q109 0 197.5 -43t145.5 -116t87.5 -167.5t30.5 -200.5q0 -107 -30 -201t-87 -167t-145.5 -115.5t-198.5 -42.5q-66 0 -126 20.5t-110.5 59.5t-90.5 83t-81 103v-598h-117zM307 530q0 -180 100.5 -300.5 t276.5 -120.5q90 0 161 34t114 92.5t65.5 133.5t22.5 161t-22.5 161.5t-66 134.5t-114.5 93.5t-160 34.5q-120 0 -207 -58.5t-128.5 -153t-41.5 -212.5z" />
<glyph unicode="&#xff;" horiz-adv-x="1095" d="M74 1034h137l362 -882l322 882h125l-410 -1073q-27 -73 -52 -120.5t-64 -94t-94.5 -69.5t-127.5 -23q-104 0 -176 45l47 78q67 -29 117 -29q41 0 76 15t58 36.5t45 56.5t35 63.5t30 69.5l6 15zM295 1253v99h94v-99h-94zM725 1253v99h92v-99h-92z" />
<glyph unicode="&#x152;" horiz-adv-x="2027" d="M131 682q0 292 170 471.5t461 179.5h1116v-114h-715v-447h615v-104h-615v-523h735v-114h-1136q-291 0 -461 179.5t-170 471.5zM270 682q0 -157 54.5 -276.5t167 -190t270.5 -70.5h270v1074h-270q-158 0 -270.5 -70.5t-167 -190t-54.5 -276.5z" />
<glyph unicode="&#x153;" horiz-adv-x="2050" d="M121 530q0 149 57 268t169 190t261 71q275 0 430 -273q156 273 426 273q145 0 257 -67t169.5 -182.5t48.5 -256.5l-2 -33h-839q8 -186 109.5 -298.5t283.5 -112.5q183 0 311 122l78 -71q-78 -75 -180.5 -114.5t-214.5 -39.5q-294 0 -449 270q-155 -270 -428 -270 q-112 0 -204.5 40.5t-154 111.5t-95 166.5t-33.5 205.5zM248 530q0 -84 23 -159.5t66.5 -135.5t114 -95.5t158.5 -35.5t158.5 35.5t114.5 95.5t67 135.5t23 159.5q0 85 -23 160.5t-66.5 136t-114.5 96t-159 35.5t-159 -35.5t-114 -96t-66 -136t-23 -160.5zM1102 596h717 q-14 166 -106 268.5t-253 102.5q-158 0 -251.5 -104t-106.5 -267z" />
<glyph unicode="&#x178;" horiz-adv-x="1257" d="M68 1333h153l412 -661l416 661h143l-498 -768v-534h-131v532zM367 1511v99h94v-99h-94zM797 1511v99h92v-99h-92z" />
<glyph unicode="&#x2c6;" horiz-adv-x="663" d="M49 1270q116 81 232 184h114q116 -103 232 -184l-23 -41q-147 56 -266 168q-120 -114 -264 -168z" />
<glyph unicode="&#x2dc;" horiz-adv-x="679" d="M43 1282q25 54 65 90.5t93 36.5q43 0 130.5 -39t135.5 -39q73 0 139 66l27 -19q-25 -54 -65 -90.5t-93 -36.5q-47 0 -132.5 39t-131.5 39q-76 0 -141 -65z" />
<glyph unicode="&#x2000;" horiz-adv-x="857" />
<glyph unicode="&#x2001;" horiz-adv-x="1714" />
<glyph unicode="&#x2002;" horiz-adv-x="857" />
<glyph unicode="&#x2003;" horiz-adv-x="1714" />
<glyph unicode="&#x2004;" horiz-adv-x="571" />
<glyph unicode="&#x2005;" horiz-adv-x="428" />
<glyph unicode="&#x2006;" horiz-adv-x="285" />
<glyph unicode="&#x2007;" horiz-adv-x="285" />
<glyph unicode="&#x2008;" horiz-adv-x="214" />
<glyph unicode="&#x2009;" horiz-adv-x="342" />
<glyph unicode="&#x200a;" horiz-adv-x="95" />
<glyph unicode="&#x2010;" horiz-adv-x="804" d="M158 526v99h489v-99h-489z" />
<glyph unicode="&#x2011;" horiz-adv-x="804" d="M158 526v99h489v-99h-489z" />
<glyph unicode="&#x2012;" horiz-adv-x="804" d="M158 526v99h489v-99h-489z" />
<glyph unicode="&#x2013;" d="M137 575v95h914v-95h-914z" />
<glyph unicode="&#x2014;" horiz-adv-x="1910" d="M156 575v95h1599v-95h-1599z" />
<glyph unicode="&#x2018;" horiz-adv-x="458" d="M147 901v162q0 154 129 283l23 -25q-100 -93 -100 -205v-76h106v-139h-158z" />
<glyph unicode="&#x2019;" horiz-adv-x="438" d="M152 1194v139h157v-159q0 -156 -129 -285l-24 24q100 96 100 205v76h-104z" />
<glyph unicode="&#x201a;" horiz-adv-x="503" d="M172 37v139h158v-160q0 -156 -129 -282l-23 22q98 91 98 205v76h-104z" />
<glyph unicode="&#x201c;" horiz-adv-x="839" d="M150 901v162q0 154 129 283l22 -25q-100 -93 -100 -205v-76h106v-139h-157zM528 901v160q0 157 131 285l23 -25q-100 -93 -100 -205v-76h104v-139h-158z" />
<glyph unicode="&#x201d;" horiz-adv-x="815" d="M152 1194v139h157v-159q0 -156 -129 -285l-24 24q100 96 100 205v76h-104zM530 1194v139h158v-159q0 -156 -129 -285l-24 24q102 98 102 205v76h-107z" />
<glyph unicode="&#x201e;" horiz-adv-x="882" d="M172 37v139h158v-160q0 -156 -129 -282l-23 22q98 91 98 205v76h-104zM551 37v139h158v-160q0 -156 -129 -282l-23 22q100 93 100 205v76h-106z" />
<glyph unicode="&#x2022;" horiz-adv-x="753" d="M133 682q0 101 71.5 172.5t172.5 71.5q100 0 172 -72t72 -172t-72 -172t-172 -72q-101 0 -172.5 71.5t-71.5 172.5z" />
<glyph unicode="&#x2026;" horiz-adv-x="1441" d="M178 31v155h158v-155h-158zM641 31v155h158v-155h-158zM1106 31v155h158v-155h-158z" />
<glyph unicode="&#x202f;" horiz-adv-x="342" />
<glyph unicode="&#x2039;" horiz-adv-x="563" d="M96 512v41l271 360l55 -45l-244 -336l244 -337l-55 -43z" />
<glyph unicode="&#x203a;" horiz-adv-x="565" d="M141 195l244 337l-244 336l58 45l268 -360v-41l-268 -360z" />
<glyph unicode="&#x205f;" horiz-adv-x="428" />
<glyph unicode="&#x20ac;" horiz-adv-x="1474" d="M113 526v45h157q-19 102 0 220h-157v45h159q49 237 206 379.5t394 142.5q142 0 267 -61.5t209 -174.5l-99 -69q-66 92 -162.5 141t-209.5 49q-182 0 -300 -111t-165 -296h549v-45h-558q-1 -13 -2.5 -34.5t-2.5 -40t-1 -34.5q0 -56 6 -111h558v-45h-547q47 -185 164 -296 t299 -111q114 0 210.5 50.5t161.5 143.5l103 -63q-84 -119 -208 -181.5t-272 -62.5q-236 0 -393.5 142.5t-206.5 377.5h-159z" />
<glyph unicode="&#x2122;" horiz-adv-x="1437" d="M121 1294v39h436v-39h-197v-475h-47v475h-192zM715 819v514h43v-514h-43zM791 1333h30l172 -514h13l174 514h26l33 97v-97h43v-514h-43v514h-33l-174 -514h-26l-7 -18l-6 18h-30z" />
<glyph unicode="&#xe000;" horiz-adv-x="1034" d="M0 0v1034h1034v-1034h-1034z" />
<glyph unicode="&#xfb01;" horiz-adv-x="1185" d="M82 948v86h182v18q0 64 0.5 95t6 82.5t16 77t31 59.5t51 49.5t76.5 27t106 11.5q81 0 129 -14l-14 -88q-56 12 -103 12t-90 -14.5t-67.5 -54t-24.5 -101.5v-160h250v-86h-250v-917h-117v917h-182zM879 31v1003h116v-1003h-116zM879 1305v127h116v-127h-116z" />
<glyph unicode="&#xfb02;" horiz-adv-x="1202" d="M82 948v86h182v18q0 64 0.5 95t6 82.5t16 77t31 59.5t51 49.5t76.5 27t106 11.5q81 0 129 -14l-14 -88q-56 12 -103 12t-90 -14.5t-67.5 -54t-24.5 -101.5v-160h250v-86h-250v-917h-117v917h-182zM889 31v1401h117v-1401h-117z" />
</font>
</defs>
</svg>
