<svg viewBox="0 0 126 64" xmlns="http://www.w3.org/2000/svg"><path d="M.226 63.722h2.716l.956-1.344h4.929l.512 1.344h2.705l-2.979-7.603H5.899L.224 63.722m6.932-5.838l1.059 2.856H5.104l2.052-2.856m6.359 5.838h2.366l.992-5.462h.022l2.195 5.462h1.819l4.181-5.462h.02l-.99 5.462h2.364l1.381-7.602H24.13l-3.638 4.89-1.861-4.89h-3.735l-1.381 7.602m15.163 0h8.818l.332-1.827h-6.386l.221-1.218h5.915l.286-1.577h-5.915l.221-1.216h6.24l.325-1.764H30.06l-1.382 7.602m14.305-5.712h3.801c.767 0 1.094.126.972.798l-.046.252c-.099.546-.386.798-1.043.798h-4.02l.336-1.848m-3.469 5.713h2.432l.358-1.974h3.823c.756 0 .949.262.804 1.061l-.166.914h2.432l.235-1.292c.227-1.249-.32-1.554-1.02-1.68l.004-.021c1.163-.252 1.513-.85 1.698-1.869l.088-.483c.248-1.365-.094-2.258-1.967-2.258h-7.339l-1.381 7.603m18.075-1.965c-.299 1.649.516 2.048 2.728 2.048h2.947c3.231 0 4.02-.336 4.387-2.384.402-2.216-.434-2.436-4.215-2.426-2.609.011-2.901-.011-2.781-.672.074-.409.479-.588 1.027-.588h2.695c1.117 0 1.141.231 1.04.787h2.432l.044-.241c.242-1.334.145-2.247-2.659-2.247H61.84c-3.067 0-3.391 1.061-3.641 2.436-.339 1.869.001 2.289 3.659 2.289 3.133 0 3.41.042 3.29.704-.107.588-.642.64-1.157.64h-2.979c-.701 0-1.029-.063-.893-.871h-2.432l-.095.525m11.698 1.963h2.432l.347-1.911H76.9c1.72 0 2.471-1.302 2.677-2.436l.118-.651c.271-1.491-.086-2.604-2.397-2.604h-6.627l-1.381 7.603m3.469-5.713h3.571c.734 0 .944.294.85.809l-.053.294c-.082.452-.366.809-.935.809h-3.779l.347-1.911m8.27 3.049c-.404 2.226.804 2.751 2.995 2.751h3.899c2.191 0 3.59-.525 3.994-2.751l.412-2.268c.404-2.226-.804-2.751-2.995-2.751h-3.899c-2.191 0-3.59.525-3.994 2.751l-.412 2.268m2.778-1.544c.171-.945.518-1.522 1.799-1.522h2.848c1.281 0 1.418.577 1.246 1.522l-.149.819c-.2 1.102-.518 1.522-1.668 1.522h-3.111c-1.15 0-1.315-.42-1.115-1.522l.149-.819M96.92 58.01h3.801c.767 0 1.094.126.972.798l-.046.252c-.099.546-.386.798-1.043.798h-4.02l.336-1.848m-3.469 5.713h2.432l.359-1.974h3.823c.756 0 .949.262.804 1.061l-.166.914h2.432l.234-1.292c.227-1.249-.32-1.554-1.02-1.68l.004-.021c1.163-.252 1.513-.85 1.698-1.869l.088-.483c.248-1.365-.094-2.258-1.967-2.258h-7.339l-1.381 7.603m12.038-5.714h3.41l-1.03 5.712h2.43l1.04-5.712h3.41l.35-1.89h-9.27l-.34 1.89m9.95 3.749c-.3 1.649.515 2.048 2.728 2.048h2.946c3.231 0 4.02-.336 4.387-2.384.402-2.216-.434-2.436-4.215-2.426-2.609.011-2.901-.011-2.781-.672.074-.409.479-.588 1.027-.588h2.694c1.117 0 1.141.231 1.04.787h2.432l.044-.241c.242-1.334.145-2.247-2.659-2.247h-3.396c-3.067 0-3.391 1.061-3.641 2.436-.34 1.869 0 2.289 3.659 2.289 3.133 0 3.41.042 3.29.704-.107.588-.642.64-1.157.64h-2.979c-.701 0-1.029-.063-.893-.871h-2.432l-.095.525M90.25 20.19c1.503-.478 1.819.457 1.493 1.44-.945 2.525-1.682 4.585-2.654 8.449-.284.997-.984 1.544-1.929 1.468a274.006 274.006 0 0 0-17.738-1.136c-1.529-.079-1.738-.861.107-1.804 3.927-2.074 12.12-5.587 20.721-8.416m8.246-6.987c1.225-.354 1.7.467 1.266 1.252-3.507 6.944-5.523 11.565-7.366 20.668-.159.815-.956 1.238-1.777 1.144-15.517-1.782-22.501-1.827-38.03-1.24-1.914.063-2.203-.626.939-2.538 15.442-9.469 27.621-14.302 44.963-19.286m10.182-5.03c-5.868 8.456-11.542 19.811-12.526 31.428-.092 1.205-1.101 1.564-2.031 1.429-15.798-2.722-39.34-2.765-56.04-.233-1.944.193-1.979-.908.708-3.036 18.1-14.762 42.769-25.294 68.42-31.16 1.464-.402 2.223.5 1.469 1.572m10.672-6.527c-11.736 13.392-19.729 28.414-18.909 43.18.051.954-.676 1.539-1.727 1.373-23.06-4.663-52.77-3.954-74.42 1.78-.374.079-.715.11-.955.042-.266-.075-.409-.272-.36-.583.086-.552.787-1.533 2.388-3.153C47.645 20.69 84.382 5.6 118.662-.004c1.073-.129 1.363.871.688 1.644" fill="#fff" fill-rule="evenodd"/></svg>