<svg xmlns="http://www.w3.org/2000/svg" viewBox="0 0 463.1 160.9"><style>.st5{fill:#1480c3}.st6{fill:#323264}</style><g id="Layer_2"><path d="M447.6 157.2H15.4c-6.1 0-11.1-4.3-11.1-9.6V13.3c0-5.3 5-9.6 11.1-9.6h432.2c6.1 0 11.1 4.3 11.1 9.6v134.3c0 5.3-5 9.6-11.1 9.6" fill="#fff"/><path class="st5" d="M15.4 161C6.9 161 0 155 0 147.6V13.3C0 5.9 6.9-.1 15.4-.1h432.2c8.5 0 15.4 6 15.4 13.4v134.3c0 7.4-6.9 13.4-15.4 13.4H15.4zm432.2-3.8c6.1 0 11.1-4.3 11.1-9.6V13.3c0-5.3-5-9.6-11.1-9.6H15.4c-6.1 0-11 4.3-11 9.6v134.3c0 5.3 5 9.6 11.1 9.6h432.1"/><path class="st5" d="M64.8 122h-3.5c-.5 0-.8-.4-.8-.9v-8.7c0-.5.4-.9.8-.9h3.5c.5 0 .9.4.9.9v8.7c-.1.5-.4.9-.9.9m17.4 0h-4c-.5 0-.9-.4-.9-.9v-8.6c0-.5.4-.9.9-.9h4c.5 0 .9.4.9.9v8.6c0 .5-.4.9-.9.9m17.5 0h-4.6c-.5 0-.9-.4-.9-.9v-8.5c0-.5.4-.9.9-.9h4.6c.5 0 .9.4.9.9v8.5c0 .5-.4.9-.9.9m17.4 0h-5.2c-.5 0-1-.4-1-1v-8.4c0-.5.4-1 1-1h5.2c.5 0 1 .4 1 1v8.4c0 .6-.5 1-1 1m17.4 0h-5.7c-.6 0-1-.5-1-1v-8.3c0-.6.5-1 1-1h5.7c.6 0 1 .5 1 1v8.3c.1.5-.4 1-1 1m17.5 0h-6.3c-.6 0-1.1-.5-1.1-1.1v-8.2c0-.6.5-1.1 1.1-1.1h6.3c.6 0 1.1.5 1.1 1.1v8.2c-.1.6-.5 1.1-1.1 1.1m17.4 0h-6.9c-.6 0-1.1-.5-1.1-1.1v-8.2c0-.6.5-1.1 1.1-1.1h6.9c.6 0 1.1.5 1.1 1.1v8.2c0 .6-.5 1.1-1.1 1.1m17.5 0h-7.4c-.6 0-1.1-.5-1.1-1.1v-8.1c0-.6.5-1.1 1.1-1.1h7.4c.6 0 1.1.5 1.1 1.1v8.1c0 .6-.5 1.1-1.1 1.1m17.4 0h-8c-.6 0-1.2-.5-1.2-1.2v-8c0-.6.5-1.2 1.2-1.2h8c.6 0 1.2.5 1.2 1.2v8c0 .7-.5 1.2-1.2 1.2m17.4 0h-8.6c-.7 0-1.2-.5-1.2-1.2v-7.9c0-.7.5-1.2 1.2-1.2h8.6c.7 0 1.2.5 1.2 1.2v7.9c.1.7-.5 1.2-1.2 1.2m17.5 0h-9.1c-.7 0-1.3-.6-1.3-1.3v-7.8c0-.7.6-1.3 1.3-1.3h9.1c.7 0 1.3.6 1.3 1.3v7.8c-.1.7-.6 1.3-1.3 1.3m119.6 0H248.7c-1.3 0-2.3-1-2.3-2.3v-5.8c0-1.3 1-2.3 2.3-2.3h110.1c1.3 0 2.3 1 2.3 2.3v5.8c0 1.3-1.1 2.3-2.3 2.3m40.8-46.9c-.8 0-1.5-.3-2.1-.9l-23.9-23.9c-.4-.4-1-.1-1 .4V72c0 1.6-1.3 3.1-2.9 3.1-1.7 0-3-1.3-3-3V42.2c0-1 .5-2.1 1.4-2.6 1.2-.8 2.7-.6 3.7.4l23.9 23.9c.4.4 1 .1 1-.4V42.3c0-1.6 1.3-3.1 2.9-3.1 1.7 0 3 1.3 3 3V72c0 1.1-.5 2.1-1.5 2.7-.4.2-1 .4-1.5.4m-41.9-21h-8.9c-1.7 0-3.1 1.3-3.1 2.9 0 1.7 1.3 3 3 3h5.2c.4 0 .7.3.7.7v7.5c0 .4-.3.7-.7.7h-11c-7 0-12.6-5.7-12.2-12.6.4-6.3 5.6-11.3 12-11.3h14.9c1.7 0 3.1-1.3 3.1-2.9 0-1.7-1.3-3-3-3H343c-9.6 0-17.8 7.5-18.2 17.1-.5 10.3 7.7 18.8 17.9 18.8h15c1.7 0 3-1.3 3-3V57.1c0-1.6-1.3-3-3-3M74.8 66c0-2.3-.8-4.3-3.6-4.3-2.1 0-3.6 1.6-3.6 3.9v14c0 2.6 1.4 4.5 3.6 4.5 2.5 0 3.5-2 3.5-4.9l.1-13.2M60.3 39h7.2l.1 19.2h.1c1.6-2.4 3.8-3.7 6.7-3.7 3.5 0 5.3 1.3 6.5 3.2.9 1.5 1.1 3.6 1.2 8.7v13.7c0 4-.3 6.2-1.2 7.7-1.3 2.4-3.4 3.4-6.3 3.4-3.6 0-5-1.6-6.9-3.7v3.3h-7.2L60.3 39zm25.8-.1h7.2l.1 41.8c0 2.7.8 3.5 3.6 3.8v6.8c-6.7 0-10.8-1.7-10.8-10.1l-.1-42.3m35.5 51.9h-7.2v-3.5h-.1c-1.5 2.3-3.5 3.9-6.8 3.9-3.6 0-7.5-2.3-7.5-8.8l-.1-27.6h7.3l.1 24.9c0 2.6 1.3 4.3 3.6 4.3 2.7 0 3.6-1.8 3.6-5l-.1-24.2h7.3l-.1 36m11.1-21h7.1v-4.1c0-2.7-1.4-4.1-3.6-4.1s-3.5 1.4-3.5 4.1v4.1m0 5.7v4.9c0 2.3 1.4 3.5 3.6 3.5 2.8 0 3.4-2.1 3.5-3.6h7.2c0 3-1 5.8-2.9 7.7-1.9 2-4.5 3.2-7.9 3.2-4.4 0-7.8-2-9.5-5.2-1-1.8-1.4-4.4-1.4-7.3V66.8c0-2.9.3-5.5 1.3-7.3 1.7-3.1 5-5.2 9.4-5.2 6.7 0 10.8 4.9 10.8 11.2v10h-14.1z"/><path class="st6" d="M165.4 67.2c0-2.9-1.1-4.9-3.6-4.9-2.2 0-3.6 1.9-3.6 4.5l.1 14c0 2.3 1.6 3.9 3.6 3.9 2.8 0 3.5-2 3.5-4.3V67.2M151 55.5h7.2v3.3c1.8-2.1 3.3-3.7 6.9-3.7 2.9 0 5.1 1 6.3 3.4.9 1.6 1.2 3.8 1.2 7.7v13.7c0 5.2-.2 7.3-1.1 8.8-1.2 1.9-3 3.3-6.5 3.3-2.8 0-5.1-1.3-6.7-3.7h-.1l.1 14.3H151V55.5zm40.6 20.4c-.8-.1-1.3-.2-2-.2-3.1 0-5.7 1.3-5.7 5.1 0 2.8 1.4 4.6 3.8 4.6s3.9-1.7 3.9-4.6v-4.9m.1 11.8h-.1c-1.9 2.6-3.5 4.1-6.9 4.1-3.3 0-7.8-1.6-7.8-9.6 0-8.2 2.3-12.2 11.4-12.3 1 0 2 .1 3.5.2v-3.8c0-2.4-.9-4.3-3.6-4.2-1.8 0-3.7 1.3-4.1 3.6h-7c.2-3.2 1.3-5.9 3.2-7.8 1.9-1.9 4.6-3.1 7.9-3.1 6 0 10.9 3.8 10.9 11.3l.1 25.1h-7.3l-.2-3.5zm12.6-32.3h7.3v3.8c3-2.6 5.4-4.3 9.6-4.3v7.7c-.7-.3-1.4-.4-2.2-.4-3.1 0-7.4 1.9-7.4 7.8l.1 21.4h-7.2l-.2-36m19.4-.1h7.2v3.8c3-2.6 5.4-4.3 9.6-4.3v7.7c-.7-.3-1.4-.4-2.2-.4-3.1 0-7.4 1.9-7.4 7.8l.1 21.4h-7.2l-.1-36m26.2 25c0 2.7 1.4 4.1 3.6 4.1s3.5-1.4 3.5-4.1V66.2c0-2.7-1.4-4.1-3.6-4.1s-3.5 1.4-3.5 4.1v14.1m-7.3-13c0-2.9.3-5.5 1.3-7.3 1.7-3.1 5-5.2 9.4-5.2s7.8 2 9.5 5.2c1 1.9 1.4 4.4 1.4 7.3v11.9c0 2.9-.3 5.5-1.3 7.3-1.7 3.1-5 5.2-9.4 5.2s-7.7-2-9.5-5.2c-1-1.8-1.4-4.4-1.4-7.3V67.3zm26.8-28.9h7.2l.1 16.8h4.5v5.7h-4.5l.1 20c0 3.3 1.3 3.5 4.5 3.5v6.8h-3c-6.5 0-8.8-4.6-8.8-8.4l-.1-21.9h-3.6v-5.7h3.6V38.4"/><path class="st6" d="M286.9 38.3h7.3v16.8h5v5.7h-5l.1 20c0 3.3 1.3 3.5 4.5 3.5v6.8h-3c-6.5 0-8.8-4.6-8.8-8.4V60.8h-9.4v-5.7h9.4l-.1-16.8"/></g></svg>