<?xml version="1.0" encoding="utf-8"?>
<!-- Generator: Adobe Illustrator 16.0.0, SVG Export Plug-In . SVG Version: 6.00 Build 0)  -->
<!DOCTYPE svg PUBLIC "-//W3C//DTD SVG 1.1//EN" "http://www.w3.org/Graphics/SVG/1.1/DTD/svg11.dtd">
<svg version="1.1" id="Layer_1" xmlns="http://www.w3.org/2000/svg" xmlns:xlink="http://www.w3.org/1999/xlink" x="0px" y="0px"
	 width="5184px" height="2592px" viewBox="0 0 5184 2592" enable-background="new 0 0 5184 2592" xml:space="preserve">
<g>
	<path fill-rule="evenodd" clip-rule="evenodd" fill="#FFFFFF" d="M2536.033,1289.456l-3.94,2.656
		c-1.126-1.207-2.211-2.013-3.096-2.455c-1.006-0.483-2.251-0.765-3.739-0.765c-1.328,0-2.534,0.282-3.539,0.765
		c-1.367,0.604-2.01,1.449-2.01,2.616c0,1.529,1.407,2.455,4.222,2.857l3.338,0.483c2.21,0.322,3.618,0.604,4.301,0.885
		c1.93,0.846,3.257,1.609,3.94,2.215c1.006,0.844,1.488,2.133,1.488,3.822c0,2.615-1.166,4.668-3.498,6.357
		c-2.131,1.41-4.624,2.135-7.357,2.135c-3.016,0-5.63-0.443-8.002-1.328c-2.332-0.885-3.859-2.012-4.664-3.42l3.94-2.818
		c1.126,1.287,2.211,2.094,3.217,2.535c1.005,0.484,2.493,0.766,4.302,0.805c2.01,0.08,3.619-0.201,4.865-0.805
		c1.166-0.604,1.769-1.408,1.769-2.334c0-0.885-0.161-1.529-0.482-2.012c-0.282-0.322-0.724-0.684-1.327-0.885
		c-0.805-0.242-3.498-0.807-8.042-1.611c-2.493-0.441-4.221-1.047-5.227-1.811c-1.407-1.006-2.091-2.616-2.091-4.668
		c0-2.375,1.126-4.226,3.338-5.594c2.09-1.248,4.784-1.851,8-1.811c2.453,0.08,4.625,0.483,6.354,1.288
		C2533.379,1287.162,2534.706,1288.087,2536.033,1289.456L2536.033,1289.456z"/>
	<path fill-rule="evenodd" clip-rule="evenodd" fill="#FFFFFF" d="M2546.688,1285.833l-0.04,14.288c0,2.213,0.2,3.662,0.643,4.426
		c0.805,1.328,2.573,2.014,5.187,2.014c2.412,0,4.02-0.686,4.865-2.014c0.603-0.885,0.965-2.373,0.965-4.426v-14.288h5.026
		l0.041,15.737c0,2.896-1.006,5.109-3.016,6.641c-1.931,1.568-4.664,2.373-8.082,2.373c-7.196,0-10.735-2.896-10.735-8.652
		l0.081-16.098H2546.688L2546.688,1285.833z"/>
	<path fill-rule="evenodd" clip-rule="evenodd" fill="#FFFFFF" d="M2572.782,1285.833l-0.081,14.288
		c0,2.213,0.202,3.662,0.684,4.426c0.804,1.328,2.533,2.014,5.146,2.014c2.412,0,4.02-0.686,4.905-2.014
		c0.603-0.885,0.924-2.373,0.924-4.426v-14.288h5.026l0.08,15.737c0,2.896-1.005,5.109-3.016,6.641
		c-1.97,1.568-4.704,2.373-8.121,2.373c-7.157,0-10.735-2.896-10.735-8.652l0.08-16.098H2572.782L2572.782,1285.833z"/>
	<polygon fill-rule="evenodd" clip-rule="evenodd" fill="#FFFFFF" points="2619.664,1285.874 2641.456,1285.874 2641.375,1289.778 
		2633.093,1289.778 2633.093,1310.424 2627.865,1310.424 2627.865,1289.858 2619.664,1289.858 2619.664,1285.874 	"/>
	<path fill-rule="evenodd" clip-rule="evenodd" fill="#FFFFFF" d="M2649.819,1291.911c-1.327,1.69-2.011,3.783-2.011,6.238
		c0,2.496,0.684,4.588,2.011,6.238c1.567,1.811,3.497,2.777,5.991,2.777c2.652,0,4.824-0.967,6.353-2.818
		c1.487-1.689,2.211-3.822,2.211-6.318c0-2.495-0.804-4.507-2.332-6.157c-1.608-1.771-3.698-2.616-6.191-2.616
		C2653.316,1289.174,2651.307,1290.099,2649.819,1291.911L2649.819,1291.911z M2665.66,1289.094
		c2.412,2.495,3.619,5.514,3.619,9.055c0,3.621-1.207,6.641-3.619,9.137c-2.573,2.535-5.83,3.822-9.85,3.742
		c-3.981,0-7.238-1.207-9.73-3.662c-2.413-2.375-3.619-5.393-3.619-8.936c0-3.621,1.206-6.721,3.619-9.175
		c2.492-2.617,5.749-3.984,9.771-3.984C2659.83,1285.27,2663.087,1286.558,2665.66,1289.094L2665.66,1289.094z"/>
	<polygon fill-rule="evenodd" clip-rule="evenodd" fill="#FFFFFF" points="2615.804,1286.035 2615.804,1310.182 2611.221,1310.182 
		2599.158,1293.601 2599.037,1310.303 2594.334,1310.303 2594.334,1286.035 2599.158,1286.035 2610.697,1302.133 2610.898,1301.852 
		2610.898,1286.035 2615.804,1286.035 	"/>
	<polygon fill-rule="evenodd" clip-rule="evenodd" fill="#E32B2C" points="2592.001,1261.404 2583.558,1272.955 2599.841,1272.955 
		2592.001,1261.404 	"/>
	
		<polyline fill="none" stroke="#E32B2C" stroke-width="0.134" stroke-linecap="round" stroke-linejoin="round" stroke-miterlimit="2.6131" points="
		2592.001,1261.404 2583.558,1272.955 2599.841,1272.955 2592.001,1261.404 	"/>
</g>
</svg>
